<svg xmlns="http://www.w3.org/2000/svg" viewBox="0 0 18 18"><defs><linearGradient id="a" x1="8.88" y1="17.09" x2="8.88" y2="1.09" gradientUnits="userSpaceOnUse"><stop offset="0" stop-color="#5e9624"/><stop offset=".01" stop-color="#5e9724"/><stop offset=".35" stop-color="#6cab29"/><stop offset=".68" stop-color="#73b82c"/><stop offset="1" stop-color="#76bc2d"/></linearGradient></defs><path d="M6.48 12.29h4.8v4.8h-4.8zm-5.6-6.4h4.8v-4.8H1.55a.67.67 0 00-.67.67zm.67 11.2h4.13v-4.8H.88v4.13a.67.67 0 00.67.67zm-.67-5.6h4.8v-4.8H.88zm11.2 5.6h4.14a.67.67 0 00.66-.67v-4.13h-4.8zm-5.6-5.6h4.8v-4.8h-4.8zm5.6 0h4.8v-4.8h-4.8zm0-10.4v4.8h4.8V1.76a.67.67 0 00-.66-.67zm-5.6 4.8h4.8v-4.8h-4.8z" fill="url(#a)"/></svg>