<?xml version="1.0" standalone="no"?>
<!DOCTYPE svg PUBLIC "-//W3C//DTD SVG 20010904//EN"
 "http://www.w3.org/TR/2001/REC-SVG-20010904/DTD/svg10.dtd">
<svg version="1.0" xmlns="http://www.w3.org/2000/svg"
 width="1126.000000pt" height="529.000000pt" viewBox="0 0 1126.000000 529.000000"
 preserveAspectRatio="xMidYMid meet">

<g transform="translate(0.000000,529.000000) scale(0.100000,-0.100000)"
fill="#000000" stroke="none">
<path d="M5430 5228 c0 -41 8 -68 39 -128 21 -41 54 -122 72 -179 49 -151 68
-169 224 -221 191 -63 171 -43 330 -344 l90 -171 52 -9 c57 -9 110 -3 138 18
17 12 17 19 7 82 -13 85 -187 599 -227 672 -63 116 -207 211 -439 291 -102 35
-130 41 -202 41 l-84 0 0 -52z"/>
<path d="M40 3840 l0 -190 1135 0 1135 0 0 -203 0 -203 -356 -665 c-293 -547
-364 -673 -404 -713 -41 -42 -52 -48 -75 -42 -64 16 -98 217 -77 468 6 79 17
212 24 296 50 620 -192 897 -746 853 -90 -7 -152 -17 -190 -32 -60 -22 -175
-96 -238 -152 l-37 -33 177 -161 177 -160 100 99 c117 116 173 148 254 148 76
0 85 -8 79 -64 -4 -33 -17 -61 -47 -100 -127 -169 -173 -328 -151 -527 33
-298 174 -549 445 -791 181 -162 355 -261 482 -274 l58 -6 419 736 c230 405
465 820 522 923 l104 187 0 207 0 207 253 7 c138 4 286 5 327 3 l75 -3 3 -271
2 -272 -50 -42 -50 -42 0 -120 0 -120 37 7 c35 6 164 49 391 130 215 76 530
119 700 96 107 -15 169 -46 244 -121 l58 -58 0 -75 0 -75 -65 44 c-108 72
-240 103 -438 104 -354 0 -685 -129 -924 -361 -197 -191 -264 -362 -218 -557
26 -108 68 -178 170 -278 81 -80 106 -98 206 -147 176 -88 248 -102 509 -101
196 0 225 2 325 26 138 32 256 79 357 139 l78 47 0 -37 0 -37 118 -47 c115
-46 318 -117 334 -117 12 0 10 1185 -2 1320 -17 189 -35 264 -93 380 -88 177
-215 284 -402 338 -210 61 -473 53 -770 -23 -49 -13 -99 -27 -109 -31 -16 -6
-18 -4 -13 10 4 10 7 80 7 157 l0 139 2678 -2 2677 -3 3 -271 2 -272 -50 -42
-50 -42 0 -120 0 -120 37 7 c35 6 164 49 391 130 215 76 530 119 700 96 107
-15 169 -46 244 -121 l58 -58 0 -75 0 -75 -65 44 c-108 72 -240 103 -438 104
-354 0 -685 -129 -924 -361 -197 -191 -264 -362 -218 -557 26 -108 68 -178
170 -278 81 -80 106 -98 206 -147 176 -88 248 -102 509 -101 196 0 225 2 325
26 138 32 256 79 357 139 l78 47 0 -37 0 -37 118 -47 c115 -46 318 -117 334
-117 12 0 10 1185 -2 1320 -17 189 -35 264 -93 380 -88 177 -215 284 -402 338
-210 61 -473 53 -770 -23 -49 -13 -99 -27 -109 -31 -16 -6 -18 -4 -13 10 4 10
7 80 7 157 l0 139 780 0 780 0 0 185 0 185 -5585 0 -5585 0 0 -190z m4484
-1460 c137 -39 251 -93 279 -132 20 -26 20 -27 0 -65 -24 -46 -125 -126 -267
-212 -227 -137 -445 -203 -716 -217 -217 -12 -370 31 -400 112 -35 91 192 350
395 451 146 73 287 104 465 100 107 -3 142 -8 244 -37z m5760 0 c137 -39 251
-93 279 -132 20 -26 20 -27 0 -65 -24 -46 -125 -126 -267 -212 -227 -137 -445
-203 -716 -217 -217 -12 -370 31 -400 112 -35 91 192 350 395 451 146 73 287
104 465 100 107 -3 142 -8 244 -37z"/>
<path d="M5890 1903 c0 -1008 -4 -1571 -10 -1594 -14 -48 -40 -70 -93 -76 -62
-7 -109 11 -152 59 -72 79 -113 195 -143 408 l-18 120 -219 -151 c-121 -84
-222 -153 -224 -155 -8 -7 60 -135 104 -193 88 -116 258 -230 420 -281 91 -29
248 -31 350 -5 178 45 361 174 441 310 55 95 54 51 54 1643 l0 1472 -255 0
-255 0 0 -1557z"/>
<path d="M7852 3436 c-174 -33 -418 -138 -484 -207 l-38 -40 0 86 0 85 -270 0
-270 0 2 -902 3 -902 265 -123 c145 -68 265 -123 266 -123 1 0 4 260 7 578 5
624 5 636 63 787 35 96 65 150 129 240 82 115 129 160 225 214 170 97 304 134
401 113 67 -16 144 -62 163 -101 20 -37 6 -134 -29 -206 -23 -48 -28 -52 -112
-87 -86 -36 -199 -70 -275 -83 l-38 -6 182 -227 c99 -125 186 -233 193 -241
11 -11 26 -6 95 30 217 116 399 323 430 488 11 59 2 137 -25 211 -59 165 -269
338 -487 400 -95 28 -293 35 -396 16z"/>
</g>
</svg>
