<svg id="svg" xmlns="http://www.w3.org/2000/svg" xmlns:xlink="http://www.w3.org/1999/xlink" width="400" height="187.92184724689167" viewBox="0, 0, 400,187.92184724689167" version="1.1"><g id="svgg"><path id="path0" d="M192.971 0.297 C 192.791 0.767,192.838 4.417,193.027 4.615 C 193.491 5.101,195.481 9.051,195.864 10.244 C 195.996 10.658,196.169 11.165,196.247 11.372 C 196.326 11.579,196.656 12.636,196.980 13.722 C 197.787 16.418,198.204 17.202,199.531 18.521 C 200.765 19.747,200.754 19.742,205.075 21.133 C 206.574 21.615,208.133 22.175,208.539 22.377 C 208.945 22.579,209.368 22.746,209.479 22.749 C 210.147 22.764,212.782 25.523,212.782 26.207 C 212.782 26.247,213.086 26.816,213.458 27.473 C 213.829 28.129,214.942 30.230,215.930 32.143 C 219.076 38.231,219.572 39.184,219.629 39.240 C 219.839 39.450,223.212 39.867,224.035 39.785 C 225.544 39.634,227.068 38.833,227.066 38.191 C 227.060 36.276,226.490 33.612,225.611 31.391 C 224.732 29.170,223.703 26.112,221.435 18.985 C 220.893 17.279,220.322 15.587,220.167 15.226 C 220.013 14.864,219.821 14.398,219.741 14.192 C 217.526 8.448,212.439 4.792,201.974 1.424 C 200.113 0.825,198.443 0.260,198.264 0.168 C 197.642 -0.152,193.101 -0.041,192.971 0.297 M1.363 44.861 C 0.966 45.021,1.027 58.004,1.425 58.157 C 1.589 58.219,19.817 58.271,41.933 58.271 L 82.143 58.271 82.143 65.347 L 82.143 72.423 80.897 74.792 C 80.212 76.096,79.461 77.500,79.229 77.914 C 78.997 78.327,78.458 79.321,78.032 80.122 C 76.929 82.192,75.797 84.310,75.091 85.620 C 74.758 86.241,74.123 87.425,73.682 88.252 C 73.240 89.079,72.606 90.263,72.272 90.883 C 71.938 91.504,71.304 92.688,70.862 93.515 C 70.420 94.342,69.786 95.526,69.452 96.147 C 69.119 96.767,68.484 97.951,68.043 98.778 C 67.601 99.605,66.671 101.339,65.976 102.632 C 65.282 103.924,64.267 105.827,63.721 106.861 C 63.175 107.895,62.583 108.994,62.404 109.305 C 62.226 109.615,61.634 110.714,61.090 111.748 C 60.546 112.782,59.954 113.882,59.775 114.192 C 59.595 114.502,58.918 115.771,58.270 117.011 C 53.859 125.454,50.622 125.170,49.712 116.259 C 49.248 111.710,49.363 108.653,50.369 98.789 C 52.853 74.457,44.603 64.117,23.900 65.612 C 17.445 66.079,14.345 67.404,9.138 71.921 L 7.468 73.370 8.579 74.420 C 9.886 75.655,11.063 76.731,13.629 79.040 C 14.662 79.970,15.930 81.119,16.447 81.594 C 16.964 82.069,17.956 82.979,18.651 83.616 C 20.214 85.048,19.921 85.099,21.933 83.036 C 27.759 77.059,29.311 76.058,32.727 76.074 C 35.132 76.086,35.438 76.285,35.410 77.823 C 35.379 79.573,35.216 80.023,34.121 81.391 C 27.963 89.083,26.700 97.085,29.895 108.177 C 30.230 109.341,31.536 112.460,32.317 113.963 C 38.599 126.054,52.725 137.740,62.124 138.619 L 63.440 138.743 64.146 137.463 C 64.941 136.025,65.495 135.050,66.531 133.271 C 66.921 132.599,67.452 131.668,67.711 131.203 C 67.969 130.738,68.349 130.061,68.556 129.699 C 68.763 129.337,70.690 125.954,72.837 122.180 C 74.985 118.407,76.912 115.023,77.120 114.662 C 77.329 114.300,77.752 113.539,78.062 112.970 C 78.372 112.401,78.687 111.852,78.761 111.748 C 78.836 111.645,79.108 111.180,79.366 110.714 C 79.623 110.249,80.027 109.530,80.263 109.117 C 80.499 108.703,80.904 107.984,81.163 107.519 C 81.421 107.054,82.075 105.912,82.615 104.981 C 83.155 104.051,83.809 102.909,84.067 102.444 C 84.430 101.790,90.457 91.189,92.723 87.218 C 92.929 86.856,93.310 86.180,93.568 85.714 C 93.827 85.249,94.733 83.642,95.581 82.143 C 97.322 79.068,98.010 77.821,99.512 75.018 L 100.560 73.063 100.609 65.714 L 100.658 58.365 112.218 58.365 L 123.778 58.365 123.827 67.837 L 123.876 77.309 122.608 78.457 C 121.910 79.089,121.064 79.872,120.726 80.197 L 120.113 80.789 120.113 84.718 C 120.113 87.326,120.182 88.716,120.320 88.854 C 120.510 89.044,122.756 88.572,124.436 87.989 C 124.695 87.899,125.287 87.722,125.752 87.594 C 126.217 87.467,126.767 87.294,126.974 87.210 C 127.180 87.126,127.984 86.833,128.759 86.559 C 131.711 85.516,133.611 84.809,134.228 84.525 C 135.628 83.882,140.832 82.371,143.045 81.966 C 143.717 81.842,144.605 81.669,145.019 81.581 C 145.857 81.401,147.575 81.140,150.051 80.815 C 152.469 80.498,160.551 80.484,161.842 80.795 C 165.328 81.634,167.591 83.018,169.941 85.748 L 171.053 87.040 171.053 89.572 C 171.053 92.316,171.042 92.343,170.207 91.609 C 168.424 90.043,165.707 88.701,163.048 88.071 C 162.333 87.902,161.579 87.722,161.372 87.671 C 159.014 87.091,150.748 86.793,148.296 87.200 C 147.734 87.293,146.513 87.473,145.583 87.599 C 139.961 88.363,132.354 91.048,128.585 93.598 C 128.319 93.778,127.636 94.232,127.068 94.607 C 125.630 95.555,123.537 97.083,122.850 97.687 C 117.201 102.654,114.347 106.435,113.017 110.714 C 109.164 123.114,120.127 135.786,136.868 138.285 C 139.565 138.687,148.312 138.746,150.752 138.379 C 158.955 137.144,164.175 135.349,169.549 131.916 C 171.312 130.789,171.314 130.789,171.171 132.096 C 171.005 133.628,170.668 133.385,175.658 135.329 C 177.312 135.974,178.835 136.572,179.041 136.659 C 181.052 137.504,186.921 139.334,187.352 139.251 C 187.776 139.169,187.851 99.601,187.437 94.455 C 186.883 87.570,185.846 81.812,184.929 80.532 C 184.850 80.422,184.305 79.407,183.719 78.277 C 182.436 75.804,181.000 73.817,179.336 72.210 C 172.409 65.521,160.243 63.676,145.019 67.006 C 141.255 67.829,141.001 67.895,139.319 68.471 C 138.105 68.886,137.928 68.907,137.828 68.646 C 137.766 68.483,137.814 68.316,137.936 68.276 C 138.099 68.221,138.158 66.884,138.158 63.236 L 138.158 58.271 233.271 58.271 L 328.383 58.271 328.383 67.833 L 328.383 77.396 327.287 78.406 C 326.684 78.962,325.880 79.694,325.501 80.033 L 324.812 80.648 324.812 84.779 L 324.812 88.910 325.273 88.910 C 326.427 88.910,332.057 87.161,336.476 85.430 C 339.135 84.389,342.016 83.374,343.139 83.084 C 343.449 83.004,344.337 82.772,345.113 82.567 C 347.841 81.849,350.934 81.283,354.699 80.814 C 357.411 80.476,365.214 80.511,366.729 80.868 C 369.174 81.444,371.908 82.917,373.308 84.412 C 375.906 87.186,375.773 86.884,375.711 89.868 L 375.658 92.378 374.906 91.710 C 371.240 88.452,366.157 87.048,357.976 87.036 C 355.798 87.033,353.557 87.106,352.995 87.200 C 352.433 87.293,351.212 87.470,350.282 87.594 C 334.965 89.634,319.589 101.190,317.190 112.465 C 314.929 123.092,324.168 134.261,337.970 137.584 C 344.875 139.247,355.013 139.016,362.312 137.030 C 363.139 136.805,364.070 136.551,364.380 136.466 C 365.232 136.233,366.902 135.604,367.043 135.463 C 367.112 135.394,367.283 135.338,367.424 135.338 C 367.966 135.338,373.122 132.677,374.752 131.556 C 375.774 130.852,375.726 130.819,375.790 132.284 L 375.846 133.553 378.289 134.524 C 379.633 135.058,381.029 135.619,381.391 135.769 C 381.753 135.919,382.556 136.230,383.177 136.460 C 383.797 136.690,384.474 136.952,384.680 137.042 C 385.114 137.231,388.416 138.328,390.265 138.897 C 390.958 139.111,391.699 139.286,391.910 139.286 L 392.293 139.286 392.289 118.938 C 392.285 98.693,392.158 93.557,391.546 89.004 C 391.448 88.280,391.319 87.307,391.258 86.842 C 391.197 86.377,391.072 85.700,390.980 85.338 C 390.888 84.977,390.714 84.258,390.592 83.741 C 389.753 80.174,387.212 75.668,384.316 72.610 C 377.517 65.431,364.522 63.528,348.120 67.310 C 346.868 67.599,345.928 67.863,344.404 68.355 C 343.652 68.598,342.933 68.797,342.806 68.797 C 342.583 68.797,342.542 59.132,342.763 58.506 C 342.828 58.319,348.497 58.270,370.248 58.268 C 385.319 58.266,397.757 58.197,397.888 58.114 C 398.073 57.996,398.114 56.525,398.076 51.397 L 398.026 44.831 199.812 44.799 C 90.794 44.781,1.492 44.809,1.363 44.861 M209.298 65.273 C 209.250 65.402,209.189 90.461,209.163 120.959 C 209.110 182.333,209.227 177.290,207.826 178.688 C 205.986 180.525,202.095 179.982,200.086 177.608 C 198.958 176.275,197.180 173.019,197.180 172.285 C 197.180 172.136,197.106 171.968,197.014 171.912 C 196.923 171.855,196.804 171.575,196.750 171.290 C 196.696 171.004,196.436 169.925,196.172 168.891 C 195.909 167.857,195.560 166.123,195.397 165.038 C 195.234 163.952,195.019 162.547,194.919 161.914 C 194.819 161.282,194.737 160.378,194.737 159.905 C 194.737 158.649,194.553 158.671,192.432 160.174 C 191.374 160.925,188.731 162.765,186.560 164.264 C 184.389 165.763,182.021 167.402,181.297 167.906 C 180.573 168.410,179.707 169.008,179.373 169.233 C 178.538 169.795,178.584 170.141,179.810 172.524 C 182.425 177.607,187.696 182.604,192.857 184.894 C 193.116 185.009,193.708 185.275,194.173 185.485 C 200.363 188.279,207.719 188.217,214.053 185.316 C 214.703 185.018,215.270 184.774,215.312 184.774 C 215.355 184.774,216.093 184.330,216.952 183.787 C 222.927 180.009,225.499 177.047,226.949 172.274 L 227.349 170.959 227.402 118.421 C 227.432 89.525,227.409 65.693,227.352 65.461 L 227.248 65.038 218.318 65.038 C 211.345 65.038,209.367 65.089,209.298 65.273 M279.238 65.810 C 276.656 66.259,272.168 67.559,270.207 68.426 C 270.000 68.517,269.281 68.817,268.609 69.092 C 265.775 70.253,261.489 72.772,261.460 73.295 C 261.457 73.354,261.327 73.571,261.171 73.777 C 260.682 74.425,260.532 73.779,260.529 71.004 L 260.526 68.418 250.893 68.466 L 241.259 68.515 241.208 100.282 C 241.151 135.172,241.095 132.696,241.957 133.066 C 242.297 133.212,243.463 133.749,244.549 134.258 C 245.634 134.767,246.819 135.317,247.180 135.480 C 247.542 135.643,248.797 136.227,249.968 136.779 C 251.139 137.331,252.125 137.782,252.158 137.782 C 252.191 137.782,252.967 138.133,253.882 138.561 C 258.851 140.890,260.257 141.501,260.372 141.386 C 260.443 141.317,260.536 132.293,260.580 121.335 C 260.666 99.981,260.630 100.786,261.697 96.448 C 263.343 89.754,269.547 79.818,273.214 78.004 C 273.524 77.851,274.074 77.526,274.436 77.283 C 277.877 74.967,284.588 72.542,287.500 72.563 C 290.679 72.586,295.242 75.093,295.603 77.015 C 296.192 80.154,294.344 84.904,292.136 85.926 C 287.739 87.960,284.989 88.855,280.949 89.566 C 279.131 89.886,279.156 89.859,279.864 90.731 C 280.896 92.002,285.415 97.647,285.996 98.391 C 286.306 98.788,286.650 99.206,286.760 99.321 C 286.871 99.436,287.336 100.013,287.794 100.603 C 291.130 104.897,292.790 106.938,292.955 106.946 C 293.147 106.955,296.410 105.364,297.462 104.747 C 303.631 101.133,309.196 94.937,310.933 89.752 C 312.462 85.186,310.657 79.075,306.470 74.636 C 299.466 67.211,289.589 64.010,279.238 65.810 M155.827 102.340 C 158.064 102.712,160.954 103.430,162.312 103.950 C 162.519 104.030,163.111 104.222,163.628 104.377 C 167.744 105.616,170.691 107.444,170.971 108.931 C 171.651 112.546,156.595 121.763,145.959 124.243 C 143.876 124.729,143.442 124.813,141.635 125.080 C 131.653 126.553,123.804 125.370,121.778 122.086 C 119.578 118.521,129.510 107.816,138.064 104.532 C 138.684 104.294,139.361 104.030,139.568 103.946 C 140.271 103.661,140.694 103.525,141.353 103.372 C 141.715 103.289,142.392 103.118,142.857 102.993 C 146.035 102.140,152.629 101.808,155.827 102.340 M360.573 102.360 C 367.352 103.499,374.639 106.534,375.491 108.574 C 376.777 111.651,364.332 120.110,353.665 123.409 C 352.024 123.917,351.713 123.998,349.718 124.436 C 338.281 126.948,326.801 125.481,326.065 121.413 C 325.294 117.147,335.911 106.581,343.233 104.328 C 343.698 104.185,344.164 104.014,344.267 103.947 C 344.370 103.881,344.836 103.717,345.301 103.583 C 345.766 103.449,346.358 103.274,346.617 103.194 C 349.916 102.168,356.937 101.749,360.573 102.360 " stroke="none" fill="#253d64" fill-rule="evenodd"></path><path id="path1" d="M0.000 93.985 L 0.000 187.970 200.000 187.970 L 400.000 187.970 400.000 93.985 L 400.000 0.000 299.049 0.000 C 231.796 0.000,198.137 0.063,198.214 0.188 C 198.278 0.291,198.460 0.376,198.618 0.376 C 198.993 0.376,205.129 2.422,207.003 3.173 C 213.641 5.830,217.956 9.563,219.741 14.192 C 219.821 14.398,220.013 14.864,220.167 15.226 C 220.322 15.587,220.893 17.279,221.435 18.985 C 223.703 26.112,224.732 29.170,225.611 31.391 C 226.490 33.612,227.060 36.276,227.066 38.191 C 227.070 39.386,224.190 40.091,221.355 39.590 C 219.326 39.232,220.244 40.491,215.930 32.143 C 214.942 30.230,213.829 28.129,213.458 27.473 C 213.086 26.816,212.782 26.247,212.782 26.207 C 212.782 25.523,210.147 22.764,209.479 22.749 C 209.368 22.746,208.945 22.579,208.539 22.377 C 208.133 22.175,206.574 21.615,205.075 21.133 C 200.754 19.742,200.765 19.747,199.531 18.521 C 198.204 17.202,197.787 16.418,196.980 13.722 C 196.656 12.636,196.326 11.579,196.247 11.372 C 196.169 11.165,195.996 10.658,195.864 10.244 C 195.488 9.073,193.569 5.256,193.009 4.566 C 192.903 4.437,192.852 3.410,192.888 2.169 L 192.951 -0.000 96.476 -0.000 L 0.000 0.000 0.000 93.985 M398.076 51.397 C 398.114 56.525,398.073 57.996,397.888 58.114 C 397.757 58.197,385.319 58.266,370.248 58.268 C 348.497 58.270,342.828 58.319,342.763 58.506 C 342.542 59.132,342.583 68.797,342.806 68.797 C 342.933 68.797,343.652 68.598,344.404 68.355 C 345.928 67.863,346.868 67.599,348.120 67.310 C 364.522 63.528,377.517 65.431,384.316 72.610 C 387.212 75.668,389.753 80.174,390.592 83.741 C 390.714 84.258,390.888 84.977,390.980 85.338 C 391.072 85.700,391.197 86.377,391.258 86.842 C 391.319 87.307,391.448 88.280,391.546 89.004 C 392.158 93.557,392.285 98.693,392.289 118.938 L 392.293 139.286 391.910 139.286 C 391.699 139.286,390.958 139.111,390.265 138.897 C 388.416 138.328,385.114 137.231,384.680 137.042 C 384.474 136.952,383.797 136.690,383.177 136.460 C 382.556 136.230,381.753 135.919,381.391 135.769 C 381.029 135.619,379.633 135.058,378.289 134.524 L 375.846 133.553 375.790 132.284 C 375.726 130.819,375.774 130.852,374.752 131.556 C 373.122 132.677,367.966 135.338,367.424 135.338 C 367.283 135.338,367.112 135.394,367.043 135.463 C 366.902 135.604,365.232 136.233,364.380 136.466 C 361.425 137.274,360.630 137.473,359.451 137.700 C 352.385 139.060,343.909 139.015,337.970 137.584 C 324.168 134.261,314.929 123.092,317.190 112.465 C 319.589 101.190,334.965 89.634,350.282 87.594 C 351.212 87.470,352.433 87.293,352.995 87.200 C 353.557 87.106,355.798 87.033,357.976 87.036 C 366.157 87.048,371.240 88.452,374.906 91.710 L 375.658 92.378 375.711 89.868 C 375.773 86.884,375.906 87.186,373.308 84.412 C 371.908 82.917,369.174 81.444,366.729 80.868 C 365.214 80.511,357.411 80.476,354.699 80.814 C 350.934 81.283,347.841 81.849,345.113 82.567 C 344.337 82.772,343.449 83.004,343.139 83.084 C 342.016 83.374,339.135 84.389,336.476 85.430 C 332.057 87.161,326.427 88.910,325.273 88.910 L 324.812 88.910 324.812 84.779 L 324.812 80.648 325.501 80.033 C 325.880 79.694,326.684 78.962,327.287 78.406 L 328.383 77.396 328.383 67.833 L 328.383 58.271 233.271 58.271 L 138.158 58.271 138.158 63.236 C 138.158 66.884,138.099 68.221,137.936 68.276 C 137.814 68.316,137.766 68.483,137.828 68.646 C 137.928 68.907,138.105 68.886,139.319 68.471 C 141.001 67.895,141.255 67.829,145.019 67.006 C 160.243 63.676,172.409 65.521,179.336 72.210 C 181.000 73.817,182.436 75.804,183.719 78.277 C 184.305 79.407,184.850 80.422,184.929 80.532 C 185.846 81.812,186.883 87.570,187.437 94.455 C 187.851 99.601,187.776 139.169,187.352 139.251 C 186.921 139.334,181.052 137.504,179.041 136.659 C 178.835 136.572,177.312 135.974,175.658 135.329 C 170.668 133.385,171.005 133.628,171.171 132.096 C 171.314 130.789,171.312 130.789,169.549 131.916 C 164.175 135.349,158.955 137.144,150.752 138.379 C 148.312 138.746,139.565 138.687,136.868 138.285 C 120.127 135.786,109.164 123.114,113.017 110.714 C 114.347 106.435,117.201 102.654,122.850 97.687 C 123.537 97.083,125.630 95.555,127.068 94.607 C 127.636 94.232,128.319 93.778,128.585 93.598 C 132.354 91.048,139.961 88.363,145.583 87.599 C 146.513 87.473,147.734 87.293,148.296 87.200 C 150.748 86.793,159.014 87.091,161.372 87.671 C 161.579 87.722,162.333 87.902,163.048 88.071 C 165.707 88.701,168.424 90.043,170.207 91.609 C 171.042 92.343,171.053 92.316,171.053 89.572 L 171.053 87.040 169.941 85.748 C 167.591 83.018,165.328 81.634,161.842 80.795 C 160.551 80.484,152.469 80.498,150.051 80.815 C 147.575 81.140,145.857 81.401,145.019 81.581 C 144.605 81.669,143.717 81.842,143.045 81.966 C 140.832 82.371,135.628 83.882,134.228 84.525 C 133.611 84.809,131.711 85.516,128.759 86.559 C 127.984 86.833,127.180 87.126,126.974 87.210 C 126.767 87.294,126.217 87.467,125.752 87.594 C 125.287 87.722,124.695 87.899,124.436 87.989 C 122.756 88.572,120.510 89.044,120.320 88.854 C 120.182 88.716,120.113 87.326,120.113 84.718 L 120.113 80.789 120.726 80.197 C 121.064 79.872,121.910 79.089,122.608 78.457 L 123.876 77.309 123.827 67.837 L 123.778 58.365 112.218 58.365 L 100.658 58.365 100.609 65.714 L 100.560 73.063 99.512 75.018 C 98.010 77.821,97.322 79.068,95.581 82.143 C 94.733 83.642,93.827 85.249,93.568 85.714 C 93.310 86.180,92.929 86.856,92.723 87.218 C 90.457 91.189,84.430 101.790,84.067 102.444 C 83.809 102.909,83.155 104.051,82.615 104.981 C 82.075 105.912,81.421 107.054,81.163 107.519 C 80.904 107.984,80.499 108.703,80.263 109.117 C 80.027 109.530,79.623 110.249,79.366 110.714 C 79.108 111.180,78.836 111.645,78.761 111.748 C 78.687 111.852,78.372 112.401,78.062 112.970 C 77.752 113.539,77.329 114.300,77.120 114.662 C 76.912 115.023,74.985 118.407,72.837 122.180 C 70.690 125.954,68.763 129.337,68.556 129.699 C 68.349 130.061,67.969 130.738,67.711 131.203 C 67.452 131.668,66.921 132.599,66.531 133.271 C 65.495 135.050,64.941 136.025,64.146 137.463 L 63.440 138.743 62.124 138.619 C 54.942 137.947,44.500 130.719,37.019 121.241 C 33.841 117.215,30.995 111.997,29.895 108.177 C 26.700 97.085,27.963 89.083,34.121 81.391 C 35.216 80.023,35.379 79.573,35.410 77.823 C 35.438 76.285,35.132 76.086,32.727 76.074 C 29.311 76.058,27.759 77.059,21.933 83.036 C 19.921 85.099,20.214 85.048,18.651 83.616 C 17.956 82.979,16.964 82.069,16.447 81.594 C 15.930 81.119,14.662 79.970,13.629 79.040 C 11.063 76.731,9.886 75.655,8.579 74.420 L 7.468 73.370 9.138 71.921 C 14.345 67.404,17.445 66.079,23.900 65.612 C 44.603 64.117,52.853 74.457,50.369 98.789 C 49.363 108.653,49.248 111.710,49.712 116.259 C 50.622 125.170,53.859 125.454,58.270 117.011 C 58.918 115.771,59.595 114.502,59.775 114.192 C 59.954 113.882,60.546 112.782,61.090 111.748 C 61.634 110.714,62.226 109.615,62.404 109.305 C 62.583 108.994,63.175 107.895,63.721 106.861 C 64.267 105.827,65.282 103.924,65.976 102.632 C 66.671 101.339,67.601 99.605,68.043 98.778 C 68.484 97.951,69.119 96.767,69.452 96.147 C 69.786 95.526,70.420 94.342,70.862 93.515 C 71.304 92.688,71.938 91.504,72.272 90.883 C 72.606 90.263,73.240 89.079,73.682 88.252 C 74.123 87.425,74.758 86.241,75.091 85.620 C 75.797 84.310,76.929 82.192,78.032 80.122 C 78.458 79.321,78.997 78.327,79.229 77.914 C 79.461 77.500,80.212 76.096,80.897 74.792 L 82.143 72.423 82.143 65.347 L 82.143 58.271 41.933 58.271 C 19.817 58.271,1.589 58.219,1.425 58.157 C 1.027 58.004,0.966 45.021,1.363 44.861 C 1.492 44.809,90.794 44.781,199.812 44.799 L 398.026 44.831 398.076 51.397 M227.352 65.461 C 227.409 65.693,227.432 89.525,227.402 118.421 L 227.349 170.959 226.949 172.274 C 225.499 177.047,222.927 180.009,216.952 183.787 C 216.093 184.330,215.355 184.774,215.312 184.774 C 215.270 184.774,214.703 185.018,214.053 185.316 C 207.719 188.217,200.363 188.279,194.173 185.485 C 193.708 185.275,193.116 185.009,192.857 184.894 C 187.696 182.604,182.425 177.607,179.810 172.524 C 178.584 170.141,178.538 169.795,179.373 169.233 C 179.707 169.008,180.573 168.410,181.297 167.906 C 182.021 167.402,184.389 165.763,186.560 164.264 C 188.731 162.765,191.374 160.925,192.432 160.174 C 194.553 158.671,194.737 158.649,194.737 159.905 C 194.737 160.378,194.819 161.282,194.919 161.914 C 195.019 162.547,195.234 163.952,195.397 165.038 C 195.560 166.123,195.909 167.857,196.172 168.891 C 196.436 169.925,196.696 171.004,196.750 171.290 C 196.804 171.575,196.923 171.855,197.014 171.912 C 197.106 171.968,197.180 172.136,197.180 172.285 C 197.180 173.019,198.958 176.275,200.086 177.608 C 202.095 179.982,205.986 180.525,207.826 178.688 C 209.227 177.290,209.110 182.333,209.163 120.959 C 209.189 90.461,209.250 65.402,209.298 65.273 C 209.367 65.089,211.345 65.038,218.318 65.038 L 227.248 65.038 227.352 65.461 M289.452 65.619 C 304.714 68.139,315.296 81.479,310.162 91.725 C 308.889 94.266,307.160 96.592,304.808 98.928 C 302.399 101.321,299.811 103.371,297.462 104.747 C 296.410 105.364,293.147 106.955,292.955 106.946 C 292.790 106.938,291.130 104.897,287.794 100.603 C 287.336 100.013,286.871 99.436,286.760 99.321 C 286.650 99.206,286.306 98.788,285.996 98.391 C 285.415 97.647,280.896 92.002,279.864 90.731 C 279.156 89.859,279.131 89.886,280.949 89.566 C 284.989 88.855,287.739 87.960,292.136 85.926 C 294.344 84.904,296.192 80.154,295.603 77.015 C 295.242 75.093,290.679 72.586,287.500 72.563 C 284.588 72.542,277.877 74.967,274.436 77.283 C 274.074 77.526,273.524 77.851,273.214 78.004 C 269.547 79.818,263.343 89.754,261.697 96.448 C 260.630 100.786,260.666 99.981,260.580 121.335 C 260.536 132.293,260.443 141.317,260.372 141.386 C 260.257 141.501,258.851 140.890,253.882 138.561 C 252.967 138.133,252.191 137.782,252.158 137.782 C 252.125 137.782,251.139 137.331,249.968 136.779 C 248.797 136.227,247.542 135.643,247.180 135.480 C 246.819 135.317,245.634 134.767,244.549 134.258 C 243.463 133.749,242.297 133.212,241.957 133.066 C 241.095 132.696,241.151 135.172,241.208 100.282 L 241.259 68.515 250.893 68.466 L 260.526 68.418 260.529 71.004 C 260.532 73.779,260.682 74.425,261.171 73.777 C 261.327 73.571,261.457 73.354,261.460 73.295 C 261.489 72.772,265.775 70.253,268.609 69.092 C 269.281 68.817,270.000 68.517,270.207 68.426 C 275.608 66.039,284.308 64.769,289.452 65.619 M145.771 102.443 C 144.633 102.621,143.322 102.868,142.857 102.993 C 142.392 103.118,141.715 103.289,141.353 103.372 C 140.694 103.525,140.271 103.661,139.568 103.946 C 139.361 104.030,138.684 104.294,138.064 104.532 C 129.510 107.816,119.578 118.521,121.778 122.086 C 123.804 125.370,131.653 126.553,141.635 125.080 C 143.442 124.813,143.876 124.729,145.959 124.243 C 156.595 121.763,171.651 112.546,170.971 108.931 C 170.691 107.444,167.744 105.616,163.628 104.377 C 163.111 104.222,162.519 104.030,162.312 103.950 C 157.816 102.227,151.077 101.613,145.771 102.443 M350.846 102.363 C 349.019 102.636,347.366 102.961,346.617 103.194 C 346.358 103.274,345.766 103.449,345.301 103.583 C 344.836 103.717,344.370 103.881,344.267 103.947 C 344.164 104.014,343.698 104.185,343.233 104.328 C 335.911 106.581,325.294 117.147,326.065 121.413 C 326.726 125.070,336.177 126.718,346.617 124.999 C 348.586 124.674,349.348 124.525,351.316 124.081 C 358.587 122.439,370.437 115.979,374.532 111.424 C 377.077 108.594,375.240 106.704,367.441 104.128 C 361.464 102.154,356.078 101.581,350.846 102.363 " stroke="none" fill="#fbfbfb" fill-rule="evenodd"></path></g></svg>