<svg xmlns="http://www.w3.org/2000/svg" viewBox="0 0 18 18"><defs><linearGradient id="a" x1="10.7" y1="11.32" x2="10.7" y2="9" gradientTransform="rotate(-.08 -822.612 -1454.455)" gradientUnits="userSpaceOnUse"><stop offset="0" stop-color="#0078d4"/><stop offset=".82" stop-color="#5ea0ef"/></linearGradient><linearGradient id="b" x1="6.99" y1="11.32" x2="7" y2="9" gradientUnits="userSpaceOnUse"><stop offset="0" stop-color="#0078d4"/><stop offset=".82" stop-color="#5ea0ef"/></linearGradient><linearGradient id="c" x1="3.29" y1="11.32" x2="3.3" y2="9" gradientUnits="userSpaceOnUse"><stop offset="0" stop-color="#0078d4"/><stop offset=".82" stop-color="#5ea0ef"/></linearGradient></defs><circle cx="12.74" cy="8.99" r="1.16" fill="url(#a)"/><circle cx="9.04" cy="9" r="1.16" fill="url(#b)"/><circle cx="5.34" cy="9" r="1.16" fill="url(#c)"/><path d="M6.182 13.638l-.664.665a.3.3 0 01-.424 0L.18 9.404a.6.6 0 01-.001-.848l.663-.666 5.34 5.324a.3.3 0 010 .425z" fill="#50e6ff"/><path d="M5.418 3.708l.666.664a.3.3 0 010 .424L.838 10.057l-.666-.663a.6.6 0 01-.001-.849L4.994 3.71a.3.3 0 01.424 0z" fill="#1490df"/><path d="M17.157 7.88l.663.666a.6.6 0 010 .848l-4.915 4.9a.3.3 0 01-.424 0l-.664-.666a.3.3 0 010-.424l5.34-5.324z" fill="#50e6ff"/><path d="M17.818 9.387l-.665.664-5.247-5.261a.3.3 0 010-.425l.674-.67a.3.3 0 01.424 0l4.823 4.836a.6.6 0 01-.002.849z" fill="#1490df"/></svg>