<svg xmlns="http://www.w3.org/2000/svg" viewBox="0 0 18 18"><defs><linearGradient id="a" x1="9.59" y1="17.96" x2="9.59" y2="-.17" gradientUnits="userSpaceOnUse"><stop offset="0" stop-color="#0078d4"/><stop offset=".82" stop-color="#5ea0ef"/></linearGradient></defs><path d="M18 10.73a3.77 3.77 0 00-3.28-3.63 4.75 4.75 0 00-4.9-4.55 4.89 4.89 0 00-4.69 3.18 4.48 4.48 0 00-3.94 4.34 4.57 4.57 0 004.73 4.39H14.21A3.81 3.81 0 0018 10.73z" fill="url(#a)"/><path d="M0 11.66a3.76 3.76 0 013.8-3.8 3.77 3.77 0 013.8 3.8v3.79H3.8A3.76 3.76 0 010 11.66z" fill="#50e6ff" fill-rule="evenodd"/><path d="M6.17 11.91v-.56l-.57-.2-.14-.38.28-.59v-.06l-.18-.18-.21-.24h-.08l-.56.3-.38-.11-.25-.63h-.55l-.19.57-.42.17-.65-.31-.39.39v.07l.29.56-.17.42-.67.25v.56h.08l.59.2.16.38-.3.65.39.4h.08l.55-.28.39.16.24.67h.56v-.08l.19-.6.38-.16.66.31.39-.39v-.08l-.28-.56.11-.39zm-2.35.52a.79.79 0 010-1.57.78.78 0 01.79.78.78.78 0 01-.79.79z" fill="#fff"/></svg>