<svg xmlns="http://www.w3.org/2000/svg" viewBox="0 0 18 18"><defs><linearGradient id="a" x1="8.999" y1="-3108.081" x2="8.999" y2="-3125.919" gradientTransform="matrix(1 0 0 -1 0 -3108)" gradientUnits="userSpaceOnUse"><stop offset="0" stop-color="#b3b2b3"/><stop offset=".216" stop-color="#afaeaf"/><stop offset=".44" stop-color="#a2a2a2"/><stop offset=".577" stop-color="#979797"/></linearGradient></defs><path d="M.407 6.621a8.914 8.914 0 0117.183 0h-1.7a7.293 7.293 0 00-13.789 0zm15.451 4.863a7.295 7.295 0 01-13.718 0H.437a8.914 8.914 0 0017.123 0z" fill="url(#a)"/><path d="M9.64 13.141L7.5 8.33l-.9 1.555H1.093a.811.811 0 010-1.622h4.573l2.025-3.5 2.332 5.246L11.4 8.246l5.51.012a.811.811 0 010 1.622l-4.716-.011z" fill="#50e6ff"/></svg>