<?xml version="1.0" encoding="iso-8859-1"?>
<!-- Generator: Adobe Illustrator 19.2.0, SVG Export Plug-In . SVG Version: 6.00 Build 0)  -->
<svg version="1.1"  xmlns="http://www.w3.org/2000/svg" xmlns:xlink="http://www.w3.org/1999/xlink" x="0px" y="0px"
	 viewBox="0 0 48 48" style="enable-background:new 0 0 48 48;" xml:space="preserve">
<g>
	
		<rect x="17.355" y="21.1" transform="matrix(0.7072 -0.707 0.707 0.7072 -13.1475 21.476)" style="fill:#43A047;" width="4" height="11.024"/>
	
		<rect x="17.931" y="22.375" transform="matrix(0.7071 -0.7071 0.7071 0.7071 -9.5686 25.8711)" style="fill:#43A047;" width="17.029" height="4.222"/>
</g>
<g>
	<g>
		<path style="fill:#8BC34A;" d="M24,43c-0.749,0-1.499-0.044-2.231-0.13l0.468-3.973C22.814,38.966,23.407,39,24,39V43z"/>
	</g>
</g>
<path style="fill:#8BC34A;" d="M15.97,36.67l-2.14,3.38c1.19,0.76,2.47,1.38,3.81,1.86l1.34-3.77
	C17.93,37.77,16.92,37.27,15.97,36.67z"/>
<path style="fill:#8BC34A;" d="M13.36,34.58l-2.83,2.82c-1-1.01-1.89-2.12-2.64-3.32l3.39-2.12C11.87,32.9,12.57,33.78,13.36,34.58z
	"/>
<path style="fill:#9CCC65;" d="M9.83,28.94l-3.77,1.32c-0.47-1.34-0.79-2.73-0.94-4.13l3.97-0.45C9.22,26.79,9.47,27.89,9.83,28.94z
	"/>
<path style="fill:#AED581;" d="M9.83,19.07c-0.37,1.05-0.62,2.15-0.74,3.26l-3.97-0.44c0.15-1.41,0.47-2.8,0.93-4.13L9.83,19.07z"/>
<path style="fill:#C5E1A5;" d="M13.35,13.43c-0.79,0.8-1.48,1.68-2.08,2.63l-3.39-2.12c0.75-1.2,1.64-2.32,2.63-3.32L13.35,13.43z"
	/>
<path style="fill:#DCEDC8;" d="M18.96,9.87c-1.05,0.37-2.06,0.86-3,1.46l-2.15-3.37c1.2-0.76,2.48-1.39,3.81-1.86L18.96,9.87z"/>
<g>
	<g>
		<path style="fill:#8BC34A;" d="M22.235,9.103L21.77,5.13C22.506,5.043,23.256,5,24,5v4C23.411,9,22.817,9.035,22.235,9.103z"/>
	</g>
</g>
<g>
	<g>
		<path style="fill:#8BC34A;" d="M24,43v-4c8.271,0,15-6.729,15-15c0-8.271-6.729-15-15-15V5c10.477,0,19,8.523,19,19
			S34.477,43,24,43z"/>
	</g>
</g>
</svg>
