<svg xmlns="http://www.w3.org/2000/svg" xmlns:xlink="http://www.w3.org/1999/xlink" viewBox="0 0 52 82" fill="#fff" fill-rule="evenodd" stroke="#000" stroke-linecap="round" stroke-linejoin="round"><use xlink:href="#A" x=".5" y=".5"/><symbol id="A" overflow="visible"><g stroke="none"><path d="M49.958 23.42h0v-.481c0-12.342-10.133-22.6-22.57-22.76-.307-.481-7.37.16-7.37.16h0C8.811 1.782.059 11.559.059 22.939c0 .321-1.228 9.296 7.523 16.83 3.992 3.686 8.137 13.624 8.752 16.509l.46.962h16.275l.461-.962c.614-2.885 4.913-12.823 8.752-16.349 8.752-7.694 7.677-16.189 7.677-16.509z" fill="#68217a"/><path d="M17.102 63.01h16.275v5.45H17.102zM22.169 80h5.988l5.067-5.61H17.102z" fill="#7a7a7a"/><path d="M29.231 56.438h-3.071V36.082h-2.61v20.196H20.48V36.082h-2.61c-3.071 0-5.681-2.725-5.681-5.931s2.456-5.93 5.681-5.93 5.681 2.725 5.681 5.93v2.725h2.61v-2.725c0-3.206 2.61-5.93 5.681-5.93s5.681 2.725 5.681 5.93-2.61 5.931-5.681 5.931h-2.61v20.356zM17.87 27.427c-1.382 0-2.61 1.122-2.61 2.725 0 1.443 1.228 2.725 2.61 2.725h2.61v-2.725c-.154-1.442-1.228-2.725-2.61-2.725zm13.972 0c-1.382 0-2.61 1.282-2.61 2.725v2.725h2.61c1.382 0 2.61-1.282 2.61-2.725s-1.075-2.725-2.61-2.725z" fill-opacity=".65"/><path d="M27.389.179c-.307-.481-7.37.16-7.37.16C8.811 1.782.06 11.559.06 22.939c0 .321-1.075 8.174 5.988 15.387L39.211 3.705C35.68 1.461 31.688.179 27.389.179z" fill-opacity=".15"/></g></symbol></svg>