<svg xmlns="http://www.w3.org/2000/svg" viewBox="0 0 18 18"><defs><linearGradient id="a" x1="9" y1="-.88" x2="9" y2="16.01" gradientUnits="userSpaceOnUse"><stop offset=".22" stop-color="#32d4f5"/><stop offset=".43" stop-color="#31d1f2"/><stop offset=".6" stop-color="#2dc6e9"/><stop offset=".76" stop-color="#28b5d9"/><stop offset=".91" stop-color="#1f9dc4"/><stop offset="1" stop-color="#198ab3"/></linearGradient></defs><path d="M17.5 9.44a3.85 3.85 0 00-3.32-3.74A4.85 4.85 0 009.23 1a5 5 0 00-4.75 3.29 4.58 4.58 0 00-4 4.46 4.66 4.66 0 004.79 4.53 3 3 0 00.42 0h7.75a.64.64 0 00.2 0 3.9 3.9 0 003.86-3.84z" fill="url(#a)"/><path d="M14.53 15.14l-2 2.14a.26.26 0 01-.44-.14l-1.21-5.9A.26.26 0 0111 11l1.32-.54a.26.26 0 01.33.13l1.95 4.3a.24.24 0 01-.07.25z" fill="#37c2b1"/><path d="M8 15.14l2 2.14a.26.26 0 00.44-.14l1.21-5.9a.26.26 0 00-.15-.28l-1.32-.54a.26.26 0 00-.33.13l-1.95 4.3a.24.24 0 00.1.29z" fill="#42e8ca"/><path d="M11.58 6l.26-.22a.41.41 0 01.57.05.37.37 0 01.07.12l.12.32a.42.42 0 00.45.26l.33-.06a.41.41 0 01.47.33.33.33 0 010 .14l-.06.33a.42.42 0 00.26.45l.32.11a.42.42 0 01.24.53.75.75 0 01-.07.12l-.22.25a.42.42 0 000 .52l.22.26a.4.4 0 01-.06.57.41.41 0 01-.11.07l-.32.12a.4.4 0 00-.26.45l.06.33a.39.39 0 01-.33.46.33.33 0 01-.14 0h-.33a.4.4 0 00-.45.26l-.12.31a.4.4 0 01-.52.24.37.37 0 01-.12-.07l-.25-.25a.4.4 0 00-.52 0l-.26.21a.4.4 0 01-.57-.05.24.24 0 01-.07-.12l-.12-.31a.39.39 0 00-.45-.26l-.33.06a.41.41 0 01-.47-.34.29.29 0 010-.13l.06-.33a.4.4 0 00-.26-.45l-.31-.12a.42.42 0 01-.29-.5.75.75 0 01.07-.12l.22-.26a.42.42 0 000-.52l-.22-.25a.41.41 0 01.06-.58.23.23 0 01.12-.06l.31-.12a.42.42 0 00.26-.45L8.8 7a.41.41 0 01.33-.47h.14l.33.06a.41.41 0 00.45-.26l.12-.33a.41.41 0 01.52-.24l.12.07.26.22a.41.41 0 00.51-.05z" fill="#005ba1"/><circle cx="11.33" cy="9.02" r="2.36" fill="#ffca00"/></svg>