<svg xmlns="http://www.w3.org/2000/svg" xmlns:xlink="http://www.w3.org/1999/xlink" viewBox="0 0 91 82" fill="#fff" fill-rule="evenodd" stroke="#000" stroke-linecap="round" stroke-linejoin="round"><use xlink:href="#A" x=".5" y=".5"/><symbol id="A" overflow="visible"><path d="M83.239 38.392v-1.874L90 32.769c-.423-2.291-.845-4.373-1.69-6.456l-7.818.208-1.902-3.332 4.014-6.664c-1.479-1.666-2.958-3.332-4.648-4.581l-4.014 2.29-1.69 2.499-3.592 5.206c5.071 3.956 8.24 9.995 8.24 16.66 0 11.662-9.508 21.033-21.34 21.033s-21.34-9.371-21.34-21.033c0-10.412 7.606-19.159 17.748-20.825l1.69-6.456-3.803-6.664c-2.324.416-4.437 1.041-6.55 1.666l.211 7.705c-1.268.625-2.324 1.249-3.381 1.874l-6.761-3.956c-1.69 1.458-3.381 2.915-4.648 4.581l4.014 6.456c-.845 1.041-1.268 2.29-1.902 3.54l-7.817-.208c-.845 2.082-1.268 4.165-1.69 6.456l6.761 3.749v1.874 1.874l-6.761 3.749c.423 2.291 1.056 4.373 1.69 6.456l7.817-.209c.634 1.25 1.268 2.291 1.902 3.54l-4.014 6.664c1.479 1.666 2.958 3.332 4.648 4.789l6.761-3.957c1.056.833 2.324 1.458 3.381 1.874l-.211 7.706c2.113.833 4.226 1.249 6.55 1.666l3.803-6.664c.634 0 1.268.209 1.902.209s1.268 0 1.902-.209l3.803 6.664c2.324-.416 4.437-1.041 6.55-1.666l-.211-7.706c1.268-.624 2.324-1.249 3.381-1.874l6.761 3.957c1.69-1.458 3.38-2.915 4.648-4.789l-4.014-6.664c.634-1.041 1.479-2.29 1.901-3.54l7.818.209c.845-2.083 1.268-4.165 1.69-6.456l-6.761-3.748c.211-.624.211-1.249.211-1.874zM14.79 70.421c-2.535 0-4.648-2.082-4.648-4.581s2.113-4.582 4.648-4.582 4.648 2.082 4.648 4.582-2.113 4.581-4.648 4.581zm9.085-16.243l-3.803 1.874-2.324-1.041-1.479-3.956h-3.381l-1.268 3.956-2.324 1.041-3.803-1.874-2.324 2.291 1.902 3.748-1.056 2.291L0 63.965v3.332l4.014 1.249 1.056 2.291-1.902 3.749 2.324 2.29 3.803-1.874 2.324 1.041L13.1 80h3.381l1.268-3.956 2.324-1.041 3.803 1.874 2.324-2.29-1.902-3.749 1.056-2.291 4.014-1.458v-3.332l-4.014-1.25-1.056-2.291 1.902-3.748-2.324-2.291zM59.875 0l-1.268 3.957-4.226 13.328-6.55 20.2c-.211.417 0 .625.423.625h5.916c.211 0 .423 0 .423.209.211.208.211.416.211.625l-6.127 14.785c-.211.416 0 .416.211.209L68.326 32.28c.211-.417.211-.624-.211-.624h-6.338-1.268c-.422 0-.634-.208-.422-.625l6.127-10.621 6.55-11.661 2.113-3.541C70.439 2.291 65.368.625 59.875 0z" fill="#0078d7" stroke="none"/></symbol></svg>