<svg xmlns="http://www.w3.org/2000/svg" viewBox="0 0 18 18"><defs><linearGradient id="a" x1="8.956" y1="14.347" x2="8.956" y2="1.59" gradientUnits="userSpaceOnUse"><stop offset="0" stop-color="#0078d4"/><stop offset="1" stop-color="#5ea0ef"/></linearGradient><linearGradient id="b" x1="9.014" y1="15.941" x2="9.014" y2="12.602" gradientUnits="userSpaceOnUse"><stop offset="0" stop-color="#76bc2d"/><stop offset=".817" stop-color="#86d633"/></linearGradient></defs><path d="M17.956 10.352a4.045 4.045 0 00-3.51-3.888A5.1 5.1 0 009.2 1.59 5.228 5.228 0 004.2 5 4.827 4.827 0 00-.044 9.641a4.9 4.9 0 005.068 4.706c.151 0 .3-.007.447-.019h8.207a.813.813 0 00.222-.028 4.092 4.092 0 004.056-3.948z" fill="url(#a)"/><path d="M11.554 7.876a2.533 2.533 0 10-3.769 2.2v3.279h2.431V10.1a2.525 2.525 0 001.338-2.224zM9.466 12.6h-.931v-2.24a2.6 2.6 0 00.486.049 2.514 2.514 0 00.445-.045zm0-3.006a1.771 1.771 0 01-.445.063 1.739 1.739 0 01-.486-.076zm.75-.4l-2.431-.037a1.785 1.785 0 112.431.034z" fill="#fff"/><rect x="2.908" y="12.602" width="12.211" height="3.338" rx=".408" fill="url(#b)"/><rect x="13.269" y="13.186" width=".912" height=".912" rx=".204" fill="#fff"/><rect x="13.269" y="14.444" width=".912" height=".912" rx=".204" fill="#fff" opacity=".6"/><path d="M10.8 7.876a1.783 1.783 0 10-2.265 1.707V12.6h.931v-3A1.779 1.779 0 0010.8 7.876z" fill="#76bc2d"/></svg>