<svg xmlns="http://www.w3.org/2000/svg" viewBox="0 0 18 18"><defs><linearGradient id="a" x1="9" y1="17.826" x2="9" y2=".826" gradientUnits="userSpaceOnUse"><stop offset="0" stop-color="#198ab3"/><stop offset=".442" stop-color="#28b7db"/><stop offset=".775" stop-color="#32d4f5"/></linearGradient><linearGradient id="b" x1="5.75" y1="-3114.591" x2="12.303" y2="-3119.908" gradientUnits="userSpaceOnUse"><stop offset="0" stop-color="#fff" stop-opacity=".9"/><stop offset="1" stop-color="#fff" stop-opacity=".8"/></linearGradient></defs><circle cx="9" cy="9.326" r="8.5" fill="url(#a)"/><path d="M8.81 15.067c-.973-.6-4.151-2.747-4.151-5.255V6.605L5 6.584a4.044 4.044 0 002.35-.742A2.48 2.48 0 019 5.353a2.511 2.511 0 011.648.487A4.048 4.048 0 0013 6.584l.34.021v3.207c0 2.508-3.178 4.656-4.152 5.255L9 15.183z" fill="url(#b)"/><path d="M9 14.643C7.114 13.472 5.119 11.6 5.119 9.812V7.037a4.446 4.446 0 002.486-.812A2.027 2.027 0 019 5.813a2.073 2.073 0 011.394.411 4.456 4.456 0 002.487.813v2.775c0 1.788-1.995 3.66-3.881 4.831z" fill="#50e6ff"/><circle cx="15.345" cy="14.083" r="1.302" fill="#fff"/><path d="M15.345 12.781a1.3 1.3 0 11-1.3 1.3 1.3 1.3 0 011.3-1.3m0-.651a1.954 1.954 0 101.955 1.953 1.956 1.956 0 00-1.953-1.953z" fill="#b3b3b3"/><circle cx="2.655" cy="14.083" r="1.302" fill="#fff"/><path d="M2.655 12.781a1.3 1.3 0 11-1.3 1.3 1.3 1.3 0 011.3-1.3m0-.651a1.954 1.954 0 101.953 1.953 1.955 1.955 0 00-1.953-1.953z" fill="#b3b3b3"/><g><circle cx="9" cy="2.128" r="1.302" fill="#fff"/><path d="M9 .826a1.3 1.3 0 11-1.3 1.3A1.3 1.3 0 019 .826m0-.652a1.954 1.954 0 101.953 1.954A1.956 1.956 0 009 .174z" fill="#b3b3b3"/></g></svg>