<svg xmlns="http://www.w3.org/2000/svg" viewBox="0 0 18 18"><defs><linearGradient id="a" x1="8.51" y1=".58" x2="8.51" y2="17.27" gradientUnits="userSpaceOnUse"><stop offset=".09" stop-color="#6cc6b9"/><stop offset=".46" stop-color="#6ac4b7"/><stop offset=".64" stop-color="#62bdb0"/><stop offset=".77" stop-color="#56b1a4"/><stop offset=".88" stop-color="#439f93"/><stop offset=".98" stop-color="#2c897d"/><stop offset="1" stop-color="#258277"/></linearGradient></defs><path d="M.06 2.49H17a.52.52 0 01.54.49v11.77a.52.52 0 01-.54.49H.06a.53.53 0 01-.55-.49V3a.53.53 0 01.55-.51z" fill="url(#a)"/><path d="M7 4h8.09a.16.16 0 01.16.15v4.47a.16.16 0 01-.16.15H7a.16.16 0 01-.16-.15V4.14A.16.16 0 017 4z" fill="#fff"/><rect x="1.75" y="3.99" width="3.41" height="9.61" rx=".15" fill="#fff"/><path d="M11.92 10.12h3.14a.15.15 0 01.15.15v3.19a.15.15 0 01-.15.14h-3.14a.15.15 0 01-.15-.14v-3.19a.15.15 0 01.15-.15zM6.95 10.12H10a.15.15 0 01.15.15v3.19a.14.14 0 01-.14.14H7a.15.15 0 01-.15-.15v-3.18a.14.14 0 01.1-.15z" fill="#fff"/></svg>