<svg xmlns="http://www.w3.org/2000/svg" viewBox="0 0 18 18"><defs><linearGradient id="a" x1=".5" y1="9.99" x2="11.43" y2="9.99" gradientUnits="userSpaceOnUse"><stop offset="0" stop-color="#005ba1"/><stop offset=".07" stop-color="#0060a9"/><stop offset=".36" stop-color="#0071c8"/><stop offset=".52" stop-color="#0078d4"/><stop offset=".64" stop-color="#0074cd"/><stop offset=".82" stop-color="#006abb"/><stop offset="1" stop-color="#005ba1"/></linearGradient></defs><path fill="#949494" d="M16 4.79l-.73-.36-2.21 4.54h-1.89v.8h1.91l2.19 4.5.73-.36-2.22-4.56L16 4.79z"/><path d="M15.63 6.14a1.45 1.45 0 01-.81-.24 1.47 1.47 0 01-.68-1 1.53 1.53 0 011.49-1.87 1.51 1.51 0 01.82.24 1.54 1.54 0 01.67 1 1.53 1.53 0 01-1.49 1.86z" fill="#fff"/><path d="M15.63 3.42a1.2 1.2 0 01.64.19 1.17 1.17 0 01.52.74 1.19 1.19 0 01-.15.9 1.21 1.21 0 01-1 .55 1.18 1.18 0 01-.64-.18 1.2 1.2 0 01-.53-.75 1.2 1.2 0 011.16-1.45m0-.68a1.87 1.87 0 101 .29 1.85 1.85 0 00-1-.29z" fill="#32bedd"/><path d="M15.63 15.62a1.45 1.45 0 01-.81-.24 1.51 1.51 0 01-.48-2.1 1.52 1.52 0 012.11-.48 1.53 1.53 0 01-.82 2.82z" fill="#fff"/><path d="M15.63 12.9a1.2 1.2 0 01.64.19 1.17 1.17 0 01.52.74 1.19 1.19 0 01-.15.9 1.21 1.21 0 01-1 .55 1.18 1.18 0 01-.64-.18 1.2 1.2 0 01-.53-.75 1.2 1.2 0 011.16-1.45m0-.68a1.87 1.87 0 101 .29 1.85 1.85 0 00-1-.29z" fill="#32bedd"/><path d="M6 5.72C3 5.72.5 4.83.5 3.74v10.52c0 1.09 2.41 2 5.39 2H6c3 0 5.47-.88 5.47-2V3.74C11.43 4.83 9 5.72 6 5.72z" fill="url(#a)"/><path d="M11.43 3.74c0 1.09-2.45 2-5.47 2S.5 4.83.5 3.74 3 1.76 6 1.76s5.47.88 5.47 2" fill="#e8e8e8"/><path d="M10.15 3.58c0 .69-1.87 1.25-4.19 1.25s-4.19-.56-4.19-1.25S3.65 2.32 6 2.32s4.19.56 4.19 1.26" fill="#50e6ff"/><path d="M6 3.87a10.12 10.12 0 00-3.31.47A9.67 9.67 0 006 4.83a9.78 9.78 0 003.32-.49A10.14 10.14 0 006 3.87z" fill="#198ab3"/></svg>