<svg xmlns="http://www.w3.org/2000/svg" xmlns:xlink="http://www.w3.org/1999/xlink" viewBox="0 0 61 81" fill="#fff" fill-rule="evenodd" stroke="#000" stroke-linecap="round" stroke-linejoin="round"><use xlink:href="#A" x=".5" y=".5"/><symbol id="A" overflow="visible"><g stroke="none"><path d="M0 10.929V69.07C0 75.106 13.432 80 30 80V10.929H0z" fill="#3999c6"/><path d="M29.589 79.999h.412c16.568 0 30-4.891 30-10.929v-58.14H29.589v69.07z" fill="#59b4d9"/><path d="M60 10.929c0 6.036-13.432 10.929-30 10.929S0 16.965 0 10.929 13.432 0 30 0s30 4.893 30 10.929"/><path d="M53.867 10.299c0 3.985-10.686 7.211-23.867 7.211S6.132 14.284 6.132 10.299 16.819 3.088 30 3.088s23.867 3.228 23.867 7.211" fill="#7fba00"/><path d="M48.867 14.707c3.124-1.219 5.002-2.745 5.002-4.403 0-3.985-10.686-7.213-23.868-7.213S6.134 6.318 6.134 10.303c0 1.658 1.877 3.185 5.002 4.403 4.363-1.703 11.182-2.803 18.865-2.803s14.5 1.1 18.866 2.803" fill="#b8d432"/><path d="M49.389 58.071c-1.605 1.346-3.78 2.022-6.607 2.022h-9.428V35.358h8.943c2.816 0 4.973.517 6.457 1.588 1.389 1.005 2.086 2.41 2.086 4.205 0 1.431-.507 2.648-1.543 3.719-.882.885-1.942 1.497-3.248 1.856v.058c1.753.217 3.184.889 4.25 2.017.997 1.071 1.511 2.384 1.511 3.903.007 2.262-.813 4.033-2.42 5.366m-22.977-1.457c-2.359 2.322-5.544 3.479-9.519 3.479H8.19V35.358h8.704c8.731 0 13.098 3.998 13.098 12.043 0 3.846-1.181 6.925-3.579 9.213"/><path d="M16.439 39.873h-2.727v15.704h2.759c2.425 0 4.304-.763 5.695-2.227 1.332-1.463 2.006-3.415 2.006-5.883 0-2.317-.674-4.143-1.975-5.495-1.365-1.397-3.275-2.099-5.757-2.099" fill="#3999c6"/><path d="M43.993 44.483c.666-.583.999-1.346.999-2.293 0-1.834-1.332-2.747-4.033-2.747h-2.084v5.86h2.454c1.122 0 2.031-.282 2.665-.821m.909 5.817c-.73-.546-1.722-.853-3.004-.853h-3.03v6.524h3.001c1.276 0 2.303-.304 3.062-.914.696-.612 1.058-1.399 1.058-2.439.006-.977-.357-1.769-1.087-2.317" fill="#59b4d9"/></g></symbol></svg>