<svg xmlns="http://www.w3.org/2000/svg" viewBox="0 0 18 18"><defs><linearGradient id="a" x1="8.15" y1="17.49" x2="8.15" y2="2.09" gradientUnits="userSpaceOnUse"><stop offset="0" stop-color="#5e9624"/><stop offset=".31" stop-color="#69a828"/><stop offset=".93" stop-color="#86d633"/></linearGradient></defs><path d="M15.2.5H3.59a.57.57 0 00-.44.2L1.93 2.11l13.38 13.56-2 1.83h1a.71.71 0 00.46-.17l1.17-1.07a.59.59 0 00.19-.43V1.33A.81.81 0 0015.2.5z" fill="#5e9624"/><path d="M2.91 2.1l.74-.84A.5.5 0 014 1.08h10.88a.52.52 0 01.52.52v13.78a.52.52 0 01-.17.38l-1.15 1.06" fill="#fff"/><path d="M14 2.09H2a.06.06 0 00-.05.06v15a.38.38 0 00.38.38H14a.38.38 0 00.38-.38V2.48a.38.38 0 00-.38-.39z" fill="url(#a)"/><path d="M12.5 7.82a.37.37 0 00-.37-.39h-1.85a.16.16 0 00-.15.09L9.36 8.9 8.1 6.35 6.93 10l-1-2.6-1.32 2.44a.18.18 0 01-.15.1h-.6a.37.37 0 00-.37.33.37.37 0 00.37.41h1a.18.18 0 00.16-.1l.78-1.47 1.21 3 1.23-3.86 1.08 2.19 1.21-2.17a.16.16 0 01.15-.09h1.45a.37.37 0 00.37-.36z" fill="#fff"/></svg>