<svg xmlns="http://www.w3.org/2000/svg" viewBox="0 0 18 18"><defs><linearGradient id="a" x1="9" y1="12.23" x2="9" y2="-.53" gradientUnits="userSpaceOnUse"><stop offset="0" stop-color="#32bedd"/><stop offset=".11" stop-color="#3ccce9"/><stop offset=".29" stop-color="#47dbf5"/><stop offset=".5" stop-color="#4ee3fd"/><stop offset=".83" stop-color="#50e6ff"/></linearGradient><linearGradient id="b" y1="15.32" y2="2.44"/><linearGradient id="c" x1="8.28" y1="12.25" x2="8.64" y2="12.25"/><linearGradient id="d" x1="6.96" y1="6.53" x2="11.15" y2="6.53"/><linearGradient id="e" x1="6.96" y1="7.34" x2="11.15" y2="7.34"/><linearGradient id="f" x1="-469.14" y1="-318.87" x2="-469.14" y2="-334.39" gradientTransform="rotate(45 -635.816 417.866)" gradientUnits="userSpaceOnUse"><stop offset="0" stop-color="#0078d4"/><stop offset=".82" stop-color="#5ea0ef"/></linearGradient><linearGradient id="g" x1="-464.29" y1="-318.57" x2="-464.29" y2="-334.09" gradientTransform="rotate(45 -635.816 417.866)"/></defs><path d="M18 8.23a4.05 4.05 0 00-3.51-3.89A5.1 5.1 0 009.24-.53a5.23 5.23 0 00-5 3.41A4.82 4.82 0 000 7.52a4.9 4.9 0 005.07 4.71h8.65a.78.78 0 00.22 0 4.09 4.09 0 004.06-4z" fill="url(#a)"/><path d="M12.59 7.53a1.48 1.48 0 000-2.1L10 2.88a1.47 1.47 0 00-2 0L5.41 5.43a1.48 1.48 0 000 2.1l2.12 2.12a.47.47 0 01.12.3v4a.51.51 0 00.15.36l1 1a.34.34 0 00.48 0l.93-.94.55-.56a.19.19 0 000-.27l-.4-.4a.2.2 0 010-.3l.4-.39a.21.21 0 000-.28l-.4-.4a.19.19 0 010-.29l.4-.4a.21.21 0 000-.28l-.56-.55V10zM9 3.49a.85.85 0 11-.84.84.85.85 0 01.84-.84z" fill="url(#b)"/><path d="M8.34 14a.17.17 0 00.3-.13v-3.2a.18.18 0 00-.08-.16.18.18 0 00-.28.16v3.2a.16.16 0 00.06.13z" opacity=".75" fill="url(#c)"/><rect x="6.96" y="6.28" width="4.19" height=".5" rx=".23" opacity=".75" fill="url(#d)"/><rect x="6.96" y="7.09" width="4.19" height=".5" rx=".23" opacity=".75" fill="url(#e)"/><path d="M12.7 11.19a1.79 1.79 0 001.79-1.79V5.05a1.76 1.76 0 00-1.78-1.77H8.36a1.79 1.79 0 00-1.78 1.79v3.61a.52.52 0 01-.15.32l-3.37 3.41a.6.6 0 00-.18.43v1.64a.4.4 0 00.4.41h2.55a.23.23 0 00.23-.23V14a.26.26 0 01.26-.26H7a.23.23 0 00.23-.23v-.71a.25.25 0 01.25-.25h.68a.23.23 0 00.24-.23v-.94l.17-.18zm.38-6.5a1 1 0 11-1.44 0 1 1 0 011.44 0z" fill="url(#f)"/><path d="M15.92 14.83a1.78 1.78 0 001.78-1.78V8.7a1.78 1.78 0 00-1.78-1.78h-4.34a1.79 1.79 0 00-1.79 1.79v3.62a.47.47 0 01-.15.35l-3.37 3.37a.61.61 0 00-.17.43v1.65a.4.4 0 00.41.4h2.54a.23.23 0 00.23-.23v-.68a.25.25 0 01.25-.25h.68a.23.23 0 00.23-.24v-.68a.25.25 0 01.25-.25h.68a.23.23 0 00.23-.23V15l.18-.17zm.37-6.49a1 1 0 01-1.43 1.43 1 1 0 011.43-1.43z" fill="url(#g)"/><path d="M6.85 16.55a.22.22 0 00.38.14L10 14a.25.25 0 00.07-.21.22.22 0 00-.37-.1l-2.78 2.69a.28.28 0 00-.07.17z" fill="#fff"/><rect x="13.54" y="8.26" width=".6" height="5.07" rx=".27" transform="rotate(-45 13.83 10.791)" fill="#fff"/><rect x="12.85" y="8.94" width=".6" height="5.07" rx=".27" transform="rotate(-45 13.152 11.472)" fill="#fff"/></svg>