<svg xmlns="http://www.w3.org/2000/svg" viewBox="0 0 1035 506"><defs><style>.cls-1{fill:#e5dbc1;}.cls-1,.cls-10,.cls-11,.cls-12,.cls-13,.cls-14,.cls-15,.cls-16,.cls-18,.cls-19,.cls-2,.cls-20,.cls-21,.cls-24,.cls-3,.cls-4,.cls-5,.cls-6,.cls-7,.cls-8{stroke:#000;}.cls-1,.cls-10,.cls-13,.cls-16,.cls-18,.cls-19,.cls-2,.cls-20,.cls-21,.cls-24,.cls-3,.cls-4,.cls-5,.cls-6,.cls-7,.cls-8{stroke-linejoin:round;}.cls-1,.cls-10,.cls-11,.cls-12,.cls-13,.cls-14,.cls-15,.cls-16,.cls-18,.cls-19,.cls-2,.cls-20,.cls-21,.cls-24,.cls-3,.cls-4,.cls-5,.cls-6,.cls-7,.cls-8,.cls-9{stroke-width:2px;}.cls-2{fill:#fcbc1c;}.cls-16,.cls-24,.cls-3{fill:#4d4d4d;}.cls-23,.cls-24,.cls-3,.cls-4,.cls-5,.cls-9{stroke-linecap:round;}.cls-3,.cls-4{fill-rule:evenodd;}.cls-12,.cls-19,.cls-23,.cls-4,.cls-5,.cls-9{fill:none;}.cls-15,.cls-22,.cls-6{fill:#fff;}.cls-14,.cls-7{fill:#f2f2f2;}.cls-8{fill:#8cd1cf;}.cls-23,.cls-9{stroke:#fff;}.cls-11,.cls-12,.cls-14,.cls-15,.cls-23,.cls-9{stroke-miterlimit:10;}.cls-10{fill:#333;}.cls-11,.cls-13{fill:#e6e6e6;}.cls-17{opacity:0.2;}.cls-18{fill:#6dafac;}.cls-20{fill:#8ad1e2;}.cls-21{fill:#f9761e;}.cls-23{stroke-width:3px;}</style></defs><title>under-construction-illustration</title><g id="Layer_2" data-name="Layer 2"><g id="Illustration"><polygon class="cls-1" points="208.15 341.58 213.89 343.13 214.45 328.5 208.15 341.58"/><polygon class="cls-2" points="207.94 367.09 213.89 343.13 208.15 341.58 201.82 367.09 207.94 367.09"/><polygon class="cls-3" points="185.16 367.09 179.63 322.49 172.64 323.44 178.05 367.09 185.16 367.09"/><path class="cls-4" d="M180.06,326l1.84-.25a1.51,1.51,0,0,1,1.66,1.34l2,15.78a1.93,1.93,0,0,1-1.61,2.17"/><line class="cls-5" x1="175.93" y1="350" x2="182.92" y2="349.05"/><polygon class="cls-6" points="211.97 422.62 177.32 422.62 170.29 367.09 219 367.09 211.97 422.62"/><path class="cls-1" d="M195.82,331.71a5.94,5.94,0,0,1-4.89-4.82,16.22,16.22,0,0,1,6.41-16.2s0,6.08,1.58,8.94C201.54,324.3,201,331.33,195.82,331.71Z"/><line class="cls-5" x1="191.6" y1="347.46" x2="199.62" y2="347.46"/><line class="cls-5" x1="191.74" y1="344.36" x2="199.46" y2="344.36"/><path class="cls-1" d="M199.15,367.09a167.25,167.25,0,0,0-1-36.2,4.6,4.6,0,0,1-2.37.82,6.12,6.12,0,0,1-2.3-.9H193a167.38,167.38,0,0,0-1,36.28Z"/><path class="cls-7" d="M195.82,331.71a6.12,6.12,0,0,1-2.3-.9H193a167.87,167.87,0,0,0-1.53,20.64h8.2a166.55,166.55,0,0,0-1.51-20.56A4.6,4.6,0,0,1,195.82,331.71Z"/><polygon class="cls-8" points="211.97 422.62 177.32 422.62 170.29 367.09 219 367.09 211.97 422.62"/><line class="cls-9" x1="208.24" y1="398.99" x2="207.43" y2="404.51"/><line class="cls-9" x1="212.02" y1="373.15" x2="208.99" y2="393.85"/><path class="cls-7" d="M788.64,399.36l-3.47-2.94a24.86,24.86,0,0,0-.07-5.45l3.41-3a2.51,2.51,0,0,0,.64-2.87l-2.52-5.91a2.52,2.52,0,0,0-2.52-1.51l-4.54.37a25.53,25.53,0,0,0-3.89-3.82l.27-4.53a2.52,2.52,0,0,0-1.57-2.48l-6-2.4a2.54,2.54,0,0,0-2.86.71L762.63,369a24.85,24.85,0,0,0-5.45.07l-3-3.41a2.49,2.49,0,0,0-2.86-.64l-5.91,2.52a2.54,2.54,0,0,0-1.52,2.52l.38,4.54a25.07,25.07,0,0,0-3.82,3.89l-4.53-.27a2.52,2.52,0,0,0-2.49,1.57l-2.39,6a2.5,2.5,0,0,0,.71,2.85l3.47,2.94a24.86,24.86,0,0,0,.07,5.45l-3.41,3a2.53,2.53,0,0,0-.65,2.87l2.53,5.91a2.51,2.51,0,0,0,2.52,1.51l4.54-.37a25.08,25.08,0,0,0,3.89,3.82l-.28,4.53a2.51,2.51,0,0,0,1.58,2.48l6,2.39a2.5,2.5,0,0,0,2.85-.7l2.94-3.47a24.86,24.86,0,0,0,5.45-.07l3,3.41a2.51,2.51,0,0,0,2.87.64l5.91-2.52a2.52,2.52,0,0,0,1.51-2.52l-.37-4.54a25,25,0,0,0,3.81-3.89l4.54.27a2.5,2.5,0,0,0,2.48-1.57l2.39-6A2.52,2.52,0,0,0,788.64,399.36Zm-28.46,8.3A13.7,13.7,0,1,1,773.87,394,13.69,13.69,0,0,1,760.18,407.66Z"/><path class="cls-2" d="M788.64,399.36l-3.47-2.94a24.86,24.86,0,0,0-.07-5.45l3.41-3a2.51,2.51,0,0,0,.64-2.87l-2.52-5.91a2.52,2.52,0,0,0-2.52-1.51l-4.54.37a25.53,25.53,0,0,0-3.89-3.82l.27-4.53a2.52,2.52,0,0,0-1.57-2.48l-6-2.4a2.54,2.54,0,0,0-2.86.71L762.63,369a24.85,24.85,0,0,0-5.45.07l-3-3.41a2.49,2.49,0,0,0-2.86-.64l-5.91,2.52a2.54,2.54,0,0,0-1.52,2.52l.38,4.54a25.07,25.07,0,0,0-3.82,3.89l-4.53-.27a2.52,2.52,0,0,0-2.49,1.57l-2.39,6a2.5,2.5,0,0,0,.71,2.85l3.47,2.94a24.86,24.86,0,0,0,.07,5.45l-3.41,3a2.53,2.53,0,0,0-.65,2.87l2.53,5.91a2.51,2.51,0,0,0,2.52,1.51l4.54-.37a25.08,25.08,0,0,0,3.89,3.82l-.28,4.53a2.51,2.51,0,0,0,1.58,2.48l6,2.39a2.5,2.5,0,0,0,2.85-.7l2.94-3.47a24.86,24.86,0,0,0,5.45-.07l3,3.41a2.51,2.51,0,0,0,2.87.64l5.91-2.52a2.52,2.52,0,0,0,1.51-2.52l-.37-4.54a25,25,0,0,0,3.81-3.89l4.54.27a2.5,2.5,0,0,0,2.48-1.57l2.39-6A2.52,2.52,0,0,0,788.64,399.36Zm-28.46,8.3A13.7,13.7,0,1,1,773.87,394,13.69,13.69,0,0,1,760.18,407.66Z"/><path class="cls-7" d="M829.45,408.55l-2.13-1.81a15.12,15.12,0,0,0-.05-3.36l2.1-1.86a1.55,1.55,0,0,0,.4-1.77l-1.56-3.64a1.53,1.53,0,0,0-1.55-.93l-2.79.23a15.22,15.22,0,0,0-2.4-2.35l.17-2.8a1.55,1.55,0,0,0-1-1.53L817,387.26a1.54,1.54,0,0,0-1.75.43l-1.82,2.14a15.65,15.65,0,0,0-3.35,0l-1.87-2.1a1.54,1.54,0,0,0-1.76-.39l-3.64,1.55a1.55,1.55,0,0,0-.94,1.55l.23,2.8a15.68,15.68,0,0,0-2.35,2.4l-2.79-.17a1.55,1.55,0,0,0-1.53,1l-1.48,3.67a1.56,1.56,0,0,0,.44,1.76l2.13,1.81a15.75,15.75,0,0,0,0,3.36l-2.1,1.86a1.56,1.56,0,0,0-.4,1.77l1.56,3.64a1.53,1.53,0,0,0,1.55.93l2.8-.23a15.68,15.68,0,0,0,2.39,2.36l-.16,2.79a1.55,1.55,0,0,0,1,1.53l3.68,1.47a1.54,1.54,0,0,0,1.76-.43l1.81-2.14a15.65,15.65,0,0,0,3.35,0l1.87,2.1a1.54,1.54,0,0,0,1.76.4l3.65-1.56A1.56,1.56,0,0,0,822,420l-.23-2.8a15.68,15.68,0,0,0,2.35-2.4l2.8.17a1.53,1.53,0,0,0,1.52-1l1.48-3.67A1.55,1.55,0,0,0,829.45,408.55Zm-17.53,5.12a8.44,8.44,0,1,1,8.44-8.44A8.44,8.44,0,0,1,811.92,413.67Z"/><path class="cls-2" d="M829.45,408.55l-2.13-1.81a15.12,15.12,0,0,0-.05-3.36l2.1-1.86a1.55,1.55,0,0,0,.4-1.77l-1.56-3.64a1.53,1.53,0,0,0-1.55-.93l-2.79.23a15.22,15.22,0,0,0-2.4-2.35l.17-2.8a1.55,1.55,0,0,0-1-1.53L817,387.26a1.54,1.54,0,0,0-1.75.43l-1.82,2.14a15.65,15.65,0,0,0-3.35,0l-1.87-2.1a1.54,1.54,0,0,0-1.76-.39l-3.64,1.55a1.55,1.55,0,0,0-.94,1.55l.23,2.8a15.68,15.68,0,0,0-2.35,2.4l-2.79-.17a1.55,1.55,0,0,0-1.53,1l-1.48,3.67a1.56,1.56,0,0,0,.44,1.76l2.13,1.81a15.75,15.75,0,0,0,0,3.36l-2.1,1.86a1.56,1.56,0,0,0-.4,1.77l1.56,3.64a1.53,1.53,0,0,0,1.55.93l2.8-.23a15.68,15.68,0,0,0,2.39,2.36l-.16,2.79a1.55,1.55,0,0,0,1,1.53l3.68,1.47a1.54,1.54,0,0,0,1.76-.43l1.81-2.14a15.65,15.65,0,0,0,3.35,0l1.87,2.1a1.54,1.54,0,0,0,1.76.4l3.65-1.56A1.56,1.56,0,0,0,822,420l-.23-2.8a15.68,15.68,0,0,0,2.35-2.4l2.8.17a1.53,1.53,0,0,0,1.52-1l1.48-3.67A1.55,1.55,0,0,0,829.45,408.55Zm-17.53,5.12a8.44,8.44,0,1,1,8.44-8.44A8.44,8.44,0,0,1,811.92,413.67Z"/><path class="cls-10" d="M668,353V153.38a8.4,8.4,0,0,0-8.38-8.38H330.38a8.4,8.4,0,0,0-8.38,8.38V353Z"/><rect class="cls-8" x="334" y="157" width="321" height="181"/><rect class="cls-6" x="334" y="157" width="321" height="7"/><path class="cls-11" d="M668,374.62V353H322v21.62a8.4,8.4,0,0,0,8.38,8.38H659.62A8.4,8.4,0,0,0,668,374.62Z"/><rect class="cls-12" x="334" y="157" width="321" height="182"/><polygon class="cls-13" points="525.73 418 463.81 418 467.7 383 521.84 383 525.73 418"/><path class="cls-7" d="M457.21,418h75.57a1.71,1.71,0,0,1,1.71,1.71V423a0,0,0,0,1,0,0h-79a0,0,0,0,1,0,0v-3.29A1.71,1.71,0,0,1,457.21,418Z"/><line class="cls-9" x1="349.65" y1="192.37" x2="363.94" y2="178.08"/><line class="cls-9" x1="377.3" y1="180.6" x2="384.43" y2="173.47"/><line class="cls-9" x1="345.04" y1="212.86" x2="370.92" y2="186.98"/><path class="cls-14" d="M647.45,409.83c-12.63,0-22.86,4-22.86,8.87,0,1.56,1,3,2.86,4.3h40c1.82-1.27,2.86-2.74,2.86-4.3C670.3,413.8,660.07,409.83,647.45,409.83Z"/><path class="cls-13" d="M357.49,416h211a2.49,2.49,0,0,1,2.49,2.49V423a0,0,0,0,1,0,0H355a0,0,0,0,1,0,0v-4.51A2.49,2.49,0,0,1,357.49,416Z"/><rect class="cls-15" x="365" y="411" width="12" height="5"/><rect class="cls-15" x="383" y="411" width="12" height="5"/><rect class="cls-15" x="400" y="411" width="12" height="5"/><rect class="cls-15" x="417" y="411" width="12" height="5"/><rect class="cls-15" x="493" y="411" width="12" height="5"/><rect class="cls-15" x="510" y="411" width="12" height="5"/><rect class="cls-15" x="527" y="411" width="9" height="5"/><rect class="cls-15" x="542" y="411" width="9" height="5"/><rect class="cls-15" x="556" y="411" width="9" height="5"/><rect class="cls-15" x="434" y="411" width="54" height="5"/><rect class="cls-7" x="1" y="423" width="1033" height="21" rx="4" ry="4"/><rect class="cls-16" x="70" y="444" width="894" height="9"/><g class="cls-17"><rect x="70" y="444" width="894" height="4"/></g><rect class="cls-10" x="119" y="453" width="47" height="52"/><rect class="cls-10" x="870" y="453" width="47" height="52"/><g class="cls-17"><rect x="119" y="453" width="47" height="9"/><rect x="870" y="453" width="47" height="9"/></g><path class="cls-7" d="M523.64,238.36l-3.47-2.94a24.86,24.86,0,0,0-.07-5.45l3.41-3a2.51,2.51,0,0,0,.64-2.87l-2.52-5.91a2.52,2.52,0,0,0-2.52-1.51l-4.54.37a25.53,25.53,0,0,0-3.89-3.82l.27-4.53a2.52,2.52,0,0,0-1.57-2.48l-6-2.4a2.54,2.54,0,0,0-2.86.71L497.63,208a24.85,24.85,0,0,0-5.45.07l-3-3.41a2.49,2.49,0,0,0-2.86-.64l-5.91,2.52a2.54,2.54,0,0,0-1.52,2.52l.38,4.54a25.07,25.07,0,0,0-3.82,3.89l-4.53-.27a2.52,2.52,0,0,0-2.49,1.57l-2.39,6a2.5,2.5,0,0,0,.71,2.85l3.47,2.94a24.86,24.86,0,0,0,.07,5.45l-3.41,3a2.53,2.53,0,0,0-.65,2.87l2.53,5.91a2.51,2.51,0,0,0,2.52,1.51l4.54-.37a25.08,25.08,0,0,0,3.89,3.82l-.28,4.53a2.51,2.51,0,0,0,1.58,2.48l6,2.39a2.5,2.5,0,0,0,2.85-.7l2.94-3.47a24.86,24.86,0,0,0,5.45-.07l3,3.41a2.51,2.51,0,0,0,2.87.64l5.91-2.52a2.52,2.52,0,0,0,1.51-2.52l-.37-4.54a25,25,0,0,0,3.81-3.89l4.54.27a2.5,2.5,0,0,0,2.48-1.57l2.39-6A2.52,2.52,0,0,0,523.64,238.36Zm-28.46,8.3A13.7,13.7,0,1,1,508.87,233,13.69,13.69,0,0,1,495.18,246.66Z"/><path class="cls-2" d="M523.64,238.36l-3.47-2.94a24.86,24.86,0,0,0-.07-5.45l3.41-3a2.51,2.51,0,0,0,.64-2.87l-2.52-5.91a2.52,2.52,0,0,0-2.52-1.51l-4.54.37a25.53,25.53,0,0,0-3.89-3.82l.27-4.53a2.52,2.52,0,0,0-1.57-2.48l-6-2.4a2.54,2.54,0,0,0-2.86.71L497.63,208a24.85,24.85,0,0,0-5.45.07l-3-3.41a2.49,2.49,0,0,0-2.86-.64l-5.91,2.52a2.54,2.54,0,0,0-1.52,2.52l.38,4.54a25.07,25.07,0,0,0-3.82,3.89l-4.53-.27a2.52,2.52,0,0,0-2.49,1.57l-2.39,6a2.5,2.5,0,0,0,.71,2.85l3.47,2.94a24.86,24.86,0,0,0,.07,5.45l-3.41,3a2.53,2.53,0,0,0-.65,2.87l2.53,5.91a2.51,2.51,0,0,0,2.52,1.51l4.54-.37a25.08,25.08,0,0,0,3.89,3.82l-.28,4.53a2.51,2.51,0,0,0,1.58,2.48l6,2.39a2.5,2.5,0,0,0,2.85-.7l2.94-3.47a24.86,24.86,0,0,0,5.45-.07l3,3.41a2.51,2.51,0,0,0,2.87.64l5.91-2.52a2.52,2.52,0,0,0,1.51-2.52l-.37-4.54a25,25,0,0,0,3.81-3.89l4.54.27a2.5,2.5,0,0,0,2.48-1.57l2.39-6A2.52,2.52,0,0,0,523.64,238.36Zm-28.46,8.3A13.7,13.7,0,1,1,508.87,233,13.69,13.69,0,0,1,495.18,246.66Z"/><path class="cls-18" d="M550.18,265l-2.76-.92a15.85,15.85,0,0,0-1.33-3.21l1.3-2.6a1.6,1.6,0,0,0-.3-1.85l-2.9-2.9a1.6,1.6,0,0,0-1.85-.3l-2.6,1.3a15.71,15.71,0,0,0-3.22-1.33l-.92-2.76a1.6,1.6,0,0,0-1.52-1.1H530a1.6,1.6,0,0,0-1.52,1.1l-.92,2.76a15.71,15.71,0,0,0-3.22,1.33l-2.6-1.3a1.6,1.6,0,0,0-1.85.3l-2.9,2.9a1.6,1.6,0,0,0-.3,1.85l1.3,2.6a15.85,15.85,0,0,0-1.33,3.21l-2.76.92a1.62,1.62,0,0,0-1.09,1.53v4.1a1.6,1.6,0,0,0,1.09,1.52l2.76.92a15.71,15.71,0,0,0,1.33,3.22l-1.3,2.59a1.59,1.59,0,0,0,.3,1.85l2.9,2.91a1.63,1.63,0,0,0,1.85.3l2.6-1.3a15.68,15.68,0,0,0,3.22,1.32l.92,2.77a1.6,1.6,0,0,0,1.52,1.09h4.1a1.6,1.6,0,0,0,1.52-1.09l.92-2.77a15.68,15.68,0,0,0,3.22-1.32l2.6,1.3a1.63,1.63,0,0,0,1.85-.3l2.9-2.91a1.59,1.59,0,0,0,.3-1.85l-1.3-2.59a15.71,15.71,0,0,0,1.33-3.22l2.76-.92a1.61,1.61,0,0,0,1.1-1.52v-4.1A1.63,1.63,0,0,0,550.18,265ZM532,275a6.42,6.42,0,1,1,6.42-6.41A6.41,6.41,0,0,1,532,275Z"/><path class="cls-18" d="M474.87,273.35,472,271.18a19.67,19.67,0,0,0-.27-4.28l2.55-2.51a2,2,0,0,0,.39-2.28l-2.23-4.54a2,2,0,0,0-2-1.08l-3.54.47a19.73,19.73,0,0,0-3.22-2.82l0-3.59a2,2,0,0,0-1.33-1.88L457.56,247a2,2,0,0,0-2.21.68l-2.17,2.85a19.67,19.67,0,0,0-4.28.26l-2.51-2.54a2,2,0,0,0-2.28-.39l-4.54,2.23a2,2,0,0,0-1.08,2l.47,3.55a19.32,19.32,0,0,0-2.82,3.22l-3.59,0a2,2,0,0,0-1.88,1.34L429,265a2,2,0,0,0,.68,2.21l2.85,2.17a19.67,19.67,0,0,0,.26,4.28l-2.54,2.51a2,2,0,0,0-.39,2.28l2.23,4.53a2,2,0,0,0,2,1.09l3.55-.48a19.38,19.38,0,0,0,3.22,2.83l0,3.59a2,2,0,0,0,1.34,1.88l4.79,1.63a2,2,0,0,0,2.21-.67L451.4,290a19.67,19.67,0,0,0,4.28-.27l2.51,2.55a2,2,0,0,0,2.28.39l4.53-2.23a2,2,0,0,0,1.09-2l-.48-3.54a19.79,19.79,0,0,0,2.83-3.22l3.59,0a2,2,0,0,0,1.88-1.33l1.63-4.79A2,2,0,0,0,474.87,273.35Zm-25.14,4.42a7.9,7.9,0,1,1,10-4.93A7.91,7.91,0,0,1,449.73,277.77Z"/><path class="cls-18" d="M581,247l-2.29-.76a13,13,0,0,0-1.1-2.67l1.08-2.15a1.35,1.35,0,0,0-.25-1.54L576,237.47a1.35,1.35,0,0,0-1.54-.25l-2.15,1.08a13,13,0,0,0-2.67-1.1l-.76-2.29a1.33,1.33,0,0,0-1.26-.91h-3.41a1.33,1.33,0,0,0-1.26.91l-.76,2.29a12.82,12.82,0,0,0-2.67,1.1l-2.16-1.08a1.34,1.34,0,0,0-1.53.25l-2.41,2.41a1.32,1.32,0,0,0-.25,1.54l1.08,2.15a13,13,0,0,0-1.1,2.67l-2.29.76a1.32,1.32,0,0,0-.91,1.26v3.41a1.32,1.32,0,0,0,.91,1.26l2.29.76a13,13,0,0,0,1.1,2.67l-1.08,2.16a1.31,1.31,0,0,0,.25,1.53l2.41,2.41a1.34,1.34,0,0,0,1.53.25l2.16-1.08a12.82,12.82,0,0,0,2.67,1.1L563,265a1.32,1.32,0,0,0,1.26.91h3.41a1.32,1.32,0,0,0,1.26-.91l.76-2.29a13,13,0,0,0,2.67-1.1l2.15,1.08a1.35,1.35,0,0,0,1.54-.25l2.41-2.41a1.34,1.34,0,0,0,.25-1.53l-1.08-2.16a13,13,0,0,0,1.1-2.67l2.29-.76a1.33,1.33,0,0,0,.91-1.26v-3.41A1.33,1.33,0,0,0,581,247Zm-15.06,8.29a5.33,5.33,0,1,1,5.33-5.32A5.32,5.32,0,0,1,565.91,255.29Z"/><path class="cls-18" d="M438.39,240l-2-.93a12.12,12.12,0,0,0-.72-2.54l1.2-1.84a1.23,1.23,0,0,0-.07-1.43l-1.94-2.43a1.22,1.22,0,0,0-1.37-.39l-2.07.76A12.07,12.07,0,0,0,429.1,230l-.46-2.16a1.2,1.2,0,0,0-1.05-1l-3.1-.36a1.24,1.24,0,0,0-1.24.7l-.93,2a12.12,12.12,0,0,0-2.54.72l-1.85-1.2a1.2,1.2,0,0,0-1.42.07l-2.43,1.94a1.22,1.22,0,0,0-.39,1.37l.76,2.07a12.07,12.07,0,0,0-1.28,2.31l-2.16.46a1.22,1.22,0,0,0-1,1.05l-.35,3.1a1.21,1.21,0,0,0,.7,1.24l2,.93a12.14,12.14,0,0,0,.73,2.54l-1.2,1.84a1.22,1.22,0,0,0,.07,1.43l1.94,2.43a1.21,1.21,0,0,0,1.37.39l2.06-.76a12.15,12.15,0,0,0,2.32,1.28l.46,2.16a1.2,1.2,0,0,0,1.05,1l3.09.35a1.22,1.22,0,0,0,1.24-.69l.94-2a12.29,12.29,0,0,0,2.54-.72l1.84,1.2a1.2,1.2,0,0,0,1.42-.07l2.44-1.94a1.21,1.21,0,0,0,.38-1.37l-.75-2.07a12,12,0,0,0,1.27-2.31l2.16-.46a1.21,1.21,0,0,0,1-1.05l.35-3.1A1.22,1.22,0,0,0,438.39,240Zm-14.55,6a4.87,4.87,0,1,1,5.39-4.29A4.87,4.87,0,0,1,423.84,246Z"/><path class="cls-18" d="M407.87,251.28l-1.37-.63a8.46,8.46,0,0,0-.49-1.74l.82-1.26a.84.84,0,0,0-.05-1L405.46,245a.84.84,0,0,0-.94-.26l-1.41.52a7.83,7.83,0,0,0-1.58-.87l-.32-1.48a.82.82,0,0,0-.72-.65l-2.11-.24a.84.84,0,0,0-.85.47l-.63,1.37a8.67,8.67,0,0,0-1.74.5l-1.26-.82a.83.83,0,0,0-1,0l-1.66,1.33a.84.84,0,0,0-.27.94l.52,1.41a9,9,0,0,0-.87,1.58l-1.48.31a.82.82,0,0,0-.65.72l-.24,2.11a.83.83,0,0,0,.48.85l1.36.64a8.39,8.39,0,0,0,.5,1.73l-.82,1.26a.81.81,0,0,0,.05,1l1.32,1.67a.84.84,0,0,0,.94.26l1.41-.52a8.4,8.4,0,0,0,1.58.88l.31,1.47a.84.84,0,0,0,.72.65l2.12.24a.81.81,0,0,0,.84-.47l.64-1.37a8.37,8.37,0,0,0,1.73-.49l1.26.82a.86.86,0,0,0,1-.05l1.66-1.33a.81.81,0,0,0,.26-.93l-.51-1.42a8.53,8.53,0,0,0,.87-1.57l1.47-.32a.83.83,0,0,0,.66-.72l.24-2.11A.83.83,0,0,0,407.87,251.28Zm-9.93,4.09a3.33,3.33,0,1,1,3.68-2.93A3.33,3.33,0,0,1,397.94,255.37Z"/><rect class="cls-19" x="715" y="296" width="33" height="33"/><line class="cls-19" x1="715" y1="296" x2="748" y2="329"/><line class="cls-19" x1="748" y1="296" x2="715" y2="329"/><rect class="cls-19" x="715" y="263" width="33" height="33"/><line class="cls-19" x1="715" y1="263" x2="748" y2="296"/><line class="cls-19" x1="748" y1="263" x2="715" y2="296"/><rect class="cls-19" x="715" y="230" width="33" height="33"/><line class="cls-19" x1="715" y1="230" x2="748" y2="263"/><line class="cls-19" x1="748" y1="230" x2="715" y2="263"/><rect class="cls-19" x="715" y="197" width="33" height="33"/><line class="cls-19" x1="715" y1="197" x2="748" y2="230"/><line class="cls-19" x1="748" y1="197" x2="715" y2="230"/><rect class="cls-19" x="715" y="164" width="33" height="33"/><line class="cls-19" x1="715" y1="164" x2="748" y2="197"/><line class="cls-19" x1="748" y1="164" x2="715" y2="197"/><rect class="cls-19" x="715" y="131" width="33" height="33"/><line class="cls-19" x1="715" y1="131" x2="748" y2="164"/><line class="cls-19" x1="748" y1="131" x2="715" y2="164"/><rect class="cls-19" x="715" y="98" width="33" height="33"/><line class="cls-19" x1="715" y1="98" x2="748" y2="131"/><line class="cls-19" x1="748" y1="98" x2="715" y2="131"/><rect class="cls-19" x="715" y="65" width="33" height="33"/><polygon class="cls-19" points="748 65 715 65 724 16 739 16 748 65"/><line class="cls-19" x1="715" y1="65" x2="748" y2="98"/><line class="cls-19" x1="748" y1="65" x2="715" y2="98"/><line class="cls-19" x1="715" y1="65" x2="739" y2="16"/><line class="cls-19" x1="748" y1="65" x2="724" y2="16"/><rect class="cls-19" x="715" y="329" width="33" height="33"/><line class="cls-19" x1="715" y1="329" x2="748" y2="362"/><line class="cls-19" x1="748" y1="329" x2="715" y2="362"/><rect class="cls-19" x="715" y="362" width="33" height="33"/><line class="cls-19" x1="715" y1="362" x2="748" y2="395"/><line class="cls-19" x1="748" y1="362" x2="715" y2="395"/><circle class="cls-2" cx="731.5" cy="10.5" r="9.5"/><rect class="cls-19" x="748" y="106" width="85" height="4"/><rect class="cls-19" x="748" y="92" width="85" height="14"/><line class="cls-19" x1="753" y1="92" x2="753" y2="106"/><line class="cls-19" x1="758" y1="92" x2="758" y2="106"/><line class="cls-19" x1="763" y1="92" x2="763" y2="106"/><line class="cls-19" x1="773" y1="92" x2="773" y2="106"/><line class="cls-19" x1="783" y1="92" x2="783" y2="106"/><line class="cls-19" x1="793" y1="92" x2="793" y2="106"/><line class="cls-19" x1="803" y1="92" x2="803" y2="106"/><line class="cls-19" x1="813" y1="92" x2="813" y2="106"/><line class="cls-19" x1="823" y1="92" x2="823" y2="106"/><line class="cls-19" x1="768" y1="92" x2="768" y2="106"/><line class="cls-19" x1="778" y1="92" x2="778" y2="106"/><line class="cls-19" x1="788" y1="92" x2="788" y2="106"/><line class="cls-19" x1="798" y1="92" x2="798" y2="106"/><line class="cls-19" x1="808" y1="92" x2="808" y2="106"/><line class="cls-19" x1="818" y1="92" x2="818" y2="106"/><line class="cls-19" x1="828" y1="92" x2="828" y2="106"/><line class="cls-19" x1="738" y1="3" x2="801" y2="118"/><polygon class="cls-19" points="515 90 495 90 515 70 515 90"/><rect class="cls-19" x="515" y="70" width="20" height="20"/><line class="cls-19" x1="515" y1="70" x2="535" y2="90"/><line class="cls-19" x1="535" y1="70" x2="516" y2="89"/><rect class="cls-19" x="535" y="70" width="20" height="20"/><line class="cls-19" x1="535" y1="70" x2="555" y2="90"/><line class="cls-19" x1="555" y1="70" x2="536" y2="89"/><rect class="cls-19" x="555" y="70" width="20" height="20"/><line class="cls-19" x1="555" y1="70" x2="575" y2="90"/><line class="cls-19" x1="575" y1="70" x2="556" y2="89"/><rect class="cls-19" x="575" y="70" width="20" height="20"/><line class="cls-19" x1="575" y1="70" x2="595" y2="90"/><line class="cls-19" x1="595" y1="70" x2="576" y2="89"/><rect class="cls-19" x="595" y="70" width="20" height="20"/><line class="cls-19" x1="595" y1="70" x2="615" y2="90"/><line class="cls-19" x1="615" y1="70" x2="596" y2="89"/><rect class="cls-19" x="615" y="70" width="20" height="20"/><line class="cls-19" x1="615" y1="70" x2="635" y2="90"/><line class="cls-19" x1="635" y1="70" x2="616" y2="89"/><rect class="cls-19" x="635" y="70" width="20" height="20"/><line class="cls-19" x1="635" y1="70" x2="655" y2="90"/><line class="cls-19" x1="655" y1="70" x2="636" y2="89"/><rect class="cls-19" x="655" y="70" width="20" height="20"/><line class="cls-19" x1="655" y1="70" x2="675" y2="90"/><line class="cls-19" x1="675" y1="70" x2="656" y2="89"/><rect class="cls-19" x="675" y="70" width="20" height="20"/><line class="cls-19" x1="675" y1="70" x2="695" y2="90"/><line class="cls-19" x1="695" y1="70" x2="676" y2="89"/><rect class="cls-19" x="695" y="70" width="20" height="20"/><line class="cls-19" x1="695" y1="70" x2="715" y2="90"/><line class="cls-19" x1="715" y1="70" x2="696" y2="89"/><line class="cls-19" x1="515" y1="90" x2="505" y2="80"/><line class="cls-19" x1="725" y1="4" x2="615" y2="70"/><line class="cls-19" x1="515" y1="70" x2="725" y2="4"/><line class="cls-19" x1="495" y1="90" x2="495" y2="181"/><line class="cls-19" x1="495" y1="189" x2="495" y2="208"/><circle class="cls-2" cx="495" cy="185" r="4"/><rect class="cls-7" x="698" y="395" width="67" height="9"/><rect class="cls-17" x="698" y="400" width="67" height="4"/><rect class="cls-7" x="690" y="404" width="83" height="19"/><path class="cls-2" d="M740,146H690a8,8,0,0,1-8-8V112.61a15,15,0,0,1,1.64-6.82l6.28-12.28A15,15,0,0,1,703.44,85H740a4,4,0,0,1,4,4v53A4,4,0,0,1,740,146Z"/><path class="cls-20" d="M689,121h23V92h-8.88A7,7,0,0,0,697,95.6l-6.74,12.13a10,10,0,0,0-1.26,4.86Z"/><path class="cls-20" d="M712,139H692a3,3,0,0,1-3-3V125h23Z"/><rect class="cls-2" x="717" y="91" width="22" height="55"/><rect class="cls-2" x="687" y="146" width="56" height="5"/><rect class="cls-2" x="801" y="110" width="32" height="8"/><line class="cls-9" x1="702.5" y1="99.83" x2="703.7" y2="97.87"/><line class="cls-9" x1="696.34" y1="109.88" x2="700" y2="104"/><rect class="cls-2" x="591" y="250" width="4" height="173" rx="1" ry="1"/><rect class="cls-2" x="616" y="250" width="4" height="173" rx="1" ry="1"/><rect class="cls-2" x="595" y="263" width="21" height="4"/><rect class="cls-17" x="595" y="263" width="3" height="4"/><rect class="cls-17" x="613" y="263" width="3" height="4"/><rect class="cls-2" x="595" y="283" width="21" height="4"/><rect class="cls-17" x="595" y="283" width="3" height="4"/><rect class="cls-17" x="613" y="283" width="3" height="4"/><rect class="cls-2" x="595" y="303" width="21" height="4"/><rect class="cls-17" x="595" y="303" width="3" height="4"/><rect class="cls-17" x="613" y="303" width="3" height="4"/><rect class="cls-2" x="595" y="323" width="21" height="4"/><rect class="cls-17" x="595" y="323" width="3" height="4"/><rect class="cls-17" x="613" y="323" width="3" height="4"/><rect class="cls-2" x="595" y="343" width="21" height="4"/><rect class="cls-17" x="595" y="343" width="3" height="4"/><rect class="cls-17" x="613" y="343" width="3" height="4"/><rect class="cls-2" x="595" y="363" width="21" height="4"/><rect class="cls-17" x="595" y="363" width="3" height="4"/><rect class="cls-17" x="613" y="363" width="3" height="4"/><rect class="cls-2" x="595" y="383" width="21" height="4"/><rect class="cls-17" x="595" y="383" width="3" height="4"/><rect class="cls-17" x="613" y="383" width="3" height="4"/><rect class="cls-2" x="595" y="403" width="21" height="4"/><rect class="cls-17" x="595" y="403" width="3" height="4"/><rect class="cls-17" x="613" y="403" width="3" height="4"/><path class="cls-8" d="M216.13,77.26A73.87,73.87,0,1,0,290,151.13,73.87,73.87,0,0,0,216.13,77.26Zm0,141.73A67.87,67.87,0,1,1,284,151.13,67.87,67.87,0,0,1,216.13,219Z"/><circle class="cls-6" cx="216.13" cy="151.13" r="67.87"/><line class="cls-5" x1="216.13" y1="90.16" x2="216.13" y2="98.05"/><line class="cls-5" x1="185.64" y1="98.33" x2="189.59" y2="105.16"/><line class="cls-5" x1="163.33" y1="120.64" x2="170.16" y2="124.59"/><line class="cls-5" x1="155.16" y1="151.13" x2="163.05" y2="151.13"/><line class="cls-5" x1="163.33" y1="181.61" x2="170.16" y2="177.67"/><line class="cls-5" x1="185.64" y1="203.93" x2="189.59" y2="197.1"/><line class="cls-5" x1="216.13" y1="212.09" x2="216.13" y2="204.21"/><line class="cls-5" x1="246.61" y1="203.93" x2="242.67" y2="197.1"/><line class="cls-5" x1="268.93" y1="181.61" x2="262.1" y2="177.67"/><line class="cls-5" x1="277.09" y1="151.13" x2="269.21" y2="151.13"/><line class="cls-5" x1="268.93" y1="120.64" x2="262.1" y2="124.59"/><line class="cls-5" x1="246.61" y1="98.33" x2="242.67" y2="105.16"/><line class="cls-5" x1="220.09" y1="153.6" x2="251.75" y2="171.91"/><line class="cls-5" x1="216.13" y1="146.45" x2="216.13" y2="105.93"/><line class="cls-5" x1="216.13" y1="164.4" x2="216.13" y2="155.81"/><circle class="cls-13" cx="216.13" cy="151.13" r="4.68"/><line class="cls-5" x1="206.96" y1="146.01" x2="212" y2="148.92"/><rect class="cls-6" x="300" y="399" width="48" height="10"/><rect class="cls-6" x="278" y="364" width="92" height="14"/><polygon class="cls-21" points="297.64 378 288.21 378 294.94 364 304.37 364 297.64 378"/><polygon class="cls-21" points="316.11 378 306.68 378 313.42 364 322.85 364 316.11 378"/><polygon class="cls-21" points="334.58 378 325.15 378 331.89 364 341.32 364 334.58 378"/><polygon class="cls-21" points="353.06 378 343.63 378 350.36 364 359.79 364 353.06 378"/><polygon class="cls-21" points="368.83 364 362.1 378 370 378 370 364 368.83 364"/><polygon class="cls-21" points="278 364 278 378 279.17 378 285.9 364 278 364"/><polygon class="cls-21" points="301.65 409 293.66 409 299.37 399 307.36 399 301.65 409"/><polygon class="cls-21" points="317.31 409 309.32 409 315.03 399 323.02 399 317.31 409"/><polygon class="cls-21" points="332.97 409 324.98 409 330.69 399 338.68 399 332.97 409"/><polygon class="cls-21" points="348.63 409 340.64 409 346.35 399 354.34 399 348.63 409"/><rect class="cls-11" x="290" y="378" width="10" height="45"/><rect class="cls-11" x="348" y="378" width="10" height="45"/><rect class="cls-17" x="290" y="378" width="10" height="5"/><rect class="cls-17" x="348" y="378" width="10" height="5"/><rect class="cls-11" x="293" y="359" width="4" height="5"/><circle class="cls-2" cx="295" cy="353" r="6"/><path class="cls-9" d="M295,350a3,3,0,0,1,3,3"/><rect class="cls-11" x="351" y="359" width="4" height="5"/><circle class="cls-2" cx="353" cy="353" r="6"/><path class="cls-9" d="M353,350a3,3,0,0,1,3,3"/><rect class="cls-17" x="300" y="399" width="4" height="10"/><rect class="cls-17" x="344" y="399" width="4" height="10"/><path class="cls-9" d="M885.3,374.89V364.25a6.94,6.94,0,0,1,6.93-6.94h6.94a6.93,6.93,0,0,0,6.94-6.94h0a6.93,6.93,0,0,0-6.94-6.93H871.64a6.94,6.94,0,0,1-6.94-6.94h0a6.94,6.94,0,0,1,6.94-6.94H903a6.94,6.94,0,0,0,6.94-6.94h0a6.94,6.94,0,0,0-6.94-6.94H882.6a6.94,6.94,0,0,1-6.94-6.94h0a6.94,6.94,0,0,1,6.94-6.94h5.94a6.93,6.93,0,0,0,6.93-6.93V287"/><path class="cls-8" d="M879.43,419.3h12.65a25.18,25.18,0,0,0,20-24.47V376.14a1.26,1.26,0,0,0-1.26-1.25H860.64a1.25,1.25,0,0,0-1.25,1.25v18.69A25.19,25.19,0,0,0,879.43,419.3Z"/><path class="cls-8" d="M923.41,380.06c-3.27-3.11-8.32-2.55-11.28-1.85v4.26c2.24-.68,6.38-1.39,8.44.58,3.12,3,.25,10.19-1.79,12.45a19.4,19.4,0,0,1-7.33,4.83,24.78,24.78,0,0,1-1.72,4.88,24.75,24.75,0,0,0,12.1-6.95C925.08,394.68,928.59,385,923.41,380.06Z"/><path class="cls-9" d="M866,397.43a20.1,20.1,0,0,0,2.62,7.6"/><line class="cls-9" x1="865.87" y1="379.52" x2="865.87" y2="392.47"/><rect class="cls-7" x="849.21" y="419.3" width="73.09" height="3.7"/><path class="cls-22" d="M263.93,274.26H260.3a1.45,1.45,0,0,1-1.45-1.46v-3.62a2.18,2.18,0,1,0-4.35,0v3.62a1.45,1.45,0,0,1-1.45,1.46h-3.63a2.18,2.18,0,1,0,0,4.35h3.63a1.45,1.45,0,0,1,1.45,1.45v3.63a2.18,2.18,0,0,0,4.35,0v-3.63a1.45,1.45,0,0,1,1.45-1.45h3.63a2.18,2.18,0,0,0,0-4.35Z"/><path class="cls-22" d="M589.65,121.06h-4a1.6,1.6,0,0,1-1.6-1.6v-4a2.41,2.41,0,1,0-4.81,0v4a1.6,1.6,0,0,1-1.6,1.6h-4a2.4,2.4,0,1,0,0,4.8h4a1.6,1.6,0,0,1,1.6,1.6v4a2.41,2.41,0,0,0,4.81,0v-4a1.6,1.6,0,0,1,1.6-1.6h4a2.4,2.4,0,0,0,0-4.8Z"/><line class="cls-23" x1="162.44" y1="234.94" x2="162.44" y2="239.74"/><line class="cls-23" x1="162.44" y1="252.54" x2="162.44" y2="257.35"/><line class="cls-23" x1="151.23" y1="246.14" x2="156.03" y2="246.14"/><line class="cls-23" x1="168.84" y1="246.14" x2="173.64" y2="246.14"/><line class="cls-23" x1="899.44" y1="202.94" x2="899.44" y2="207.74"/><line class="cls-23" x1="899.44" y1="220.54" x2="899.44" y2="225.35"/><line class="cls-23" x1="888.23" y1="214.14" x2="893.03" y2="214.14"/><line class="cls-23" x1="905.84" y1="214.14" x2="910.64" y2="214.14"/><line class="cls-23" x1="809.93" y1="263.22" x2="806.55" y2="266.97"/><line class="cls-23" x1="796.15" y1="261.77" x2="798.68" y2="266.15"/><line class="cls-23" x1="790.52" y1="274.43" x2="795.46" y2="273.38"/><line class="cls-23" x1="800.81" y1="283.69" x2="801.34" y2="278.67"/><line class="cls-23" x1="812.8" y1="276.77" x2="808.19" y2="274.72"/><line class="cls-23" x1="475.8" y1="49.48" x2="475.8" y2="54.53"/><line class="cls-23" x1="464.59" y1="57.63" x2="469.39" y2="59.19"/><line class="cls-23" x1="468.87" y1="70.8" x2="471.84" y2="66.71"/><line class="cls-23" x1="482.72" y1="70.8" x2="479.75" y2="66.71"/><line class="cls-23" x1="487" y1="57.63" x2="482.2" y2="59.19"/><path class="cls-23" d="M806.39,175.33A11.61,11.61,0,1,1,818,163.72"/><path class="cls-23" d="M341.79,91.12a8,8,0,1,1,8-8"/><path class="cls-22" d="M958.55,297.33h0a7.68,7.68,0,0,1-5.74-5.73h0a2.21,2.21,0,0,0-4.31,0h0a7.68,7.68,0,0,1-5.73,5.73h0a2.21,2.21,0,0,0,0,4.31h0a7.68,7.68,0,0,1,5.73,5.74h0a2.21,2.21,0,0,0,4.31,0h0a7.67,7.67,0,0,1,5.74-5.74h0A2.21,2.21,0,0,0,958.55,297.33Z"/><path class="cls-22" d="M137.72,363.61h0a7.67,7.67,0,0,1,.08-8.11h0a2.21,2.21,0,0,0-3-3.07h0a7.67,7.67,0,0,1-8.11-.07h0a2.21,2.21,0,0,0-3.07,3h0a7.7,7.7,0,0,1-.07,8.11h0a2.21,2.21,0,0,0,3,3.07h0a7.67,7.67,0,0,1,8.11.08h0A2.21,2.21,0,0,0,137.72,363.61Z"/><polygon class="cls-21" points="183 417 158 417 164 373 177 373 183 417"/><rect class="cls-24" x="150" y="417" width="41" height="6"/><polygon class="cls-15" points="159.91 403 181.09 403 178.91 387 162.09 387 159.91 403"/></g></g></svg>